<svg width="25" height="24" viewBox="0 0 25 24" fill="none" xmlns="http://www.w3.org/2000/svg">
<circle cx="12.5" cy="12" r="12" fill="#0D1E30"/>
<path d="M12.4791 3.64886C12.8713 3.44621 13.3501 3.91469 13.1422 4.30112C13.0202 4.61617 12.561 4.69986 12.3269 4.45947C12.0788 4.22974 12.1599 3.77357 12.4791 3.64804V3.64886ZM8.25923 4.09683C8.49744 4.00001 8.79951 4.21497 8.77495 4.47177C8.79951 4.74909 8.45569 4.9542 8.21256 4.82211C7.89085 4.69904 7.92769 4.1838 8.25923 4.09683V4.09683ZM16.9021 4.82949C16.5296 4.78519 16.4707 4.20759 16.8284 4.09108C17.1067 3.95817 17.3621 4.20841 17.4031 4.46849C17.3441 4.69001 17.1558 4.89349 16.9021 4.82949V4.82949ZM9.21945 5.86736C9.61811 5.61877 10.1862 5.98879 10.1248 6.44578C10.1044 6.90606 9.48386 7.17352 9.1335 6.86175C8.79459 6.61726 8.84617 6.05607 9.21945 5.86736ZM15.3017 6.13155C15.4793 5.6803 16.1997 5.66553 16.4019 6.1053C16.6025 6.44742 16.3561 6.8716 16 6.9881C15.5276 7.07507 15.0799 6.57131 15.3017 6.13155ZM11.9708 6.96267C11.9667 6.57377 12.3252 6.28497 12.6993 6.2579C12.9482 6.30713 13.2183 6.41132 13.3248 6.65828C13.5237 6.99959 13.3469 7.46807 12.9891 7.62477C12.8254 7.71502 12.6306 7.68138 12.4521 7.67072C12.1795 7.53945 11.9495 7.27936 11.9708 6.96267ZM5.69535 7.52878C6.05963 7.30726 6.55079 7.70928 6.41245 8.09981C6.33714 8.43702 5.87708 8.57404 5.61431 8.35908C5.33353 8.15725 5.37773 7.67236 5.69617 7.52796L5.69535 7.52878ZM19.1713 7.52632C19.4799 7.29003 19.9899 7.5616 19.9522 7.94557C19.9735 8.2959 19.5323 8.56091 19.2261 8.38041C18.8888 8.23027 18.8536 7.7183 19.1713 7.52714V7.52632ZM13.7357 8.22452C14.2449 8.04402 14.8506 8.2598 15.1404 8.70859C15.5235 9.25583 15.3205 10.0894 14.7254 10.4036C14.1098 10.7753 13.2102 10.4611 12.9818 9.78174C12.7239 9.17461 13.1005 8.41487 13.7349 8.22452H13.7357ZM10.7453 8.28442C11.3102 8.02187 12.0707 8.24175 12.3433 8.81115C12.6641 9.36577 12.4161 10.1378 11.8423 10.4242C11.2676 10.7466 10.4564 10.5021 10.1789 9.90727C9.86697 9.33131 10.1437 8.54942 10.7453 8.28442V8.28442ZM7.75169 9.29357C7.79508 8.93503 8.13807 8.70121 8.48434 8.67659C8.66493 8.69571 8.8337 8.77566 8.96307 8.90338C9.09244 9.0311 9.17474 9.19903 9.19653 9.37972C9.17197 9.74892 8.883 10.1083 8.4868 10.1066C8.05048 10.1436 7.66819 9.71528 7.75169 9.29357V9.29357ZM16.5943 8.75536C17.0421 8.49855 17.6634 8.87186 17.6437 9.3789C17.674 9.9163 16.9864 10.2945 16.5411 9.97947C16.0777 9.71693 16.1138 8.97852 16.5943 8.75536ZM9.5297 10.6481C10.052 10.5062 10.6512 10.7491 10.9074 11.2233C11.1882 11.7008 11.0736 12.3637 10.6373 12.7149C10.0765 13.2285 9.04427 13.0217 8.7463 12.321C8.4033 11.6786 8.81997 10.8172 9.52888 10.6473L9.5297 10.6481ZM15.2002 10.6457C15.7085 10.5021 16.3061 10.6949 16.5795 11.1519C16.9414 11.6745 16.7686 12.4548 16.2308 12.7912C15.666 13.1825 14.7933 12.9774 14.4823 12.3653C14.1057 11.7328 14.4847 10.8385 15.2002 10.6457ZM6.16277 11.2413C6.61465 11.0731 7.11563 11.5646 6.93226 12.0068C6.82093 12.4088 6.24545 12.5582 5.9483 12.2611C5.60039 11.9822 5.72891 11.3628 6.16277 11.2413ZM18.4165 11.8829C18.408 11.7023 18.471 11.5256 18.5918 11.3914C18.7126 11.2571 18.8814 11.176 19.0616 11.1658C19.371 11.2151 19.6722 11.4612 19.6477 11.7935C19.6763 12.2324 19.1401 12.5303 18.7603 12.3243C18.5827 12.2349 18.4918 12.0552 18.4165 11.8829ZM3.94026 11.4596C4.21204 11.3422 4.54848 11.5744 4.48627 11.8723C4.47153 12.2095 3.96645 12.3399 3.78145 12.0577C3.61773 11.8616 3.71596 11.5605 3.94026 11.4587V11.4596ZM21.0892 11.4522C21.2808 11.3184 21.5886 11.4144 21.6639 11.6351C21.7924 11.8764 21.5567 12.2062 21.2816 12.166C20.8952 12.2004 20.7708 11.6204 21.0892 11.4522V11.4522ZM11.0065 13.0709C11.7219 12.888 12.4914 13.4762 12.4963 14.2032C12.5422 14.9375 11.7841 15.5881 11.0523 15.4191C10.4858 15.3288 10.0413 14.7906 10.0602 14.227C10.0585 13.6871 10.4711 13.185 11.0065 13.0709V13.0709ZM13.8405 13.0701C14.5666 12.8699 15.359 13.4689 15.3475 14.2122C15.386 14.9325 14.6517 15.5618 13.9346 15.4183C13.2593 15.3329 12.7616 14.6019 12.9498 13.9554C13.0448 13.5255 13.4099 13.176 13.8405 13.0693V13.0701ZM8.37547 13.5173C8.87809 13.4328 9.34961 13.9849 9.14578 14.4559C8.99679 14.958 8.25677 15.0934 7.92933 14.6839C7.54622 14.2901 7.83273 13.5714 8.37547 13.5173V13.5173ZM16.6876 13.5394C17.1362 13.354 17.6863 13.7363 17.6519 14.2163C17.6699 14.7438 16.9905 15.1081 16.5525 14.7996C16.0556 14.5231 16.1465 13.7084 16.6876 13.5394V13.5394ZM19.0108 15.8367C18.8356 15.5142 19.1541 15.0868 19.5183 15.1467C19.6984 15.1434 19.8253 15.2837 19.9407 15.4018C19.9645 15.593 20.0046 15.8211 19.8433 15.968C19.6248 16.2412 19.1295 16.1632 19.0108 15.8367V15.8367ZM5.69371 15.2361C6.03343 15.0138 6.52214 15.346 6.44519 15.7366C6.40426 16.0836 5.96222 16.2814 5.67161 16.0845C5.3589 15.9064 5.37036 15.3986 5.69371 15.2361V15.2361ZM12.4006 15.9606C12.8451 15.7678 13.4115 16.1493 13.369 16.6317C13.4017 17.165 12.7018 17.5342 12.2671 17.2142C11.7841 16.9394 11.8652 16.1304 12.4006 15.9606V15.9606ZM9.29476 16.6752C9.67296 16.4791 10.1805 16.8179 10.1461 17.2364C10.1576 17.5793 9.81867 17.8714 9.47486 17.8205C9.1908 17.8148 9.00579 17.5629 8.91411 17.3242C8.91902 17.0641 9.0279 16.7745 9.29476 16.676V16.6752ZM15.5866 16.6817C15.9762 16.4438 16.5296 16.7851 16.4928 17.2314C16.5026 17.6991 15.8772 17.9978 15.5145 17.6909C15.1642 17.4505 15.2067 16.8729 15.5866 16.6817ZM16.681 19.3482C16.5075 19.0906 16.7113 18.7796 16.9921 18.7206C17.2189 18.7657 17.4587 18.9339 17.4104 19.1915C17.3777 19.5418 16.8587 19.6485 16.681 19.349V19.3482ZM7.99482 19.1242C8.06358 18.9191 8.23057 18.7165 8.47534 18.7698C8.83143 18.7944 8.93703 19.3244 8.62514 19.4877C8.34518 19.6739 8.01937 19.4188 7.99482 19.1242ZM12.1861 19.3597C12.254 19.0561 12.651 18.9093 12.913 19.0701C13.0865 19.1439 13.1373 19.3343 13.1815 19.4967C13.1581 19.5811 13.1363 19.6659 13.116 19.7511C13.0088 19.8758 12.8704 20.0013 12.692 19.9972C12.3604 20.0358 12.0608 19.6657 12.1853 19.3597H12.1861Z" fill="white"/>
</svg>
