<svg width="99" height="98" viewBox="0 0 99 98" fill="none" xmlns="http://www.w3.org/2000/svg">
<g clip-path="url(#clip0_16552_887)">
<path d="M94.9088 80.2585H3.66736C1.80096 80.2585 0.288086 78.7456 0.288086 76.8792V16.0516C0.288086 14.1852 1.80096 12.6724 3.66736 12.6724H94.9088C96.7752 12.6724 98.2881 14.1852 98.2881 16.0516V76.8792C98.2881 78.7456 96.7752 80.2585 94.9088 80.2585Z" fill="#464655"/>
<path d="M93.2194 17.7415H5.35742V65.0517H93.2194V17.7415Z" fill="#959CB3"/>
<path d="M0.288086 70.1206V76.8792C0.288086 78.7456 1.80096 80.2584 3.66736 80.2584H94.9088C96.7752 80.2584 98.2881 78.7456 98.2881 76.8792V70.1206H0.288086V70.1206Z" fill="#C7CFE2"/>
<path d="M62.8051 93.7758H35.7705L37.4602 80.2585H61.1154L62.8051 93.7758Z" fill="#AFB9D2"/>
<path d="M61.5381 83.638L61.1157 80.2585H37.4605L37.0381 83.638H61.5381Z" fill="#959CB3"/>
<path d="M49.2883 77.7241C50.688 77.7241 51.8227 76.5894 51.8227 75.1897C51.8227 73.79 50.688 72.6553 49.2883 72.6553C47.8886 72.6553 46.7539 73.79 46.7539 75.1897C46.7539 76.5894 47.8886 77.7241 49.2883 77.7241Z" fill="#959CB3"/>
<path d="M62.8054 95.4657H35.7708C34.8377 95.4657 34.0811 94.709 34.0811 93.7759C34.0811 92.8428 34.8377 92.0862 35.7708 92.0862H62.8052C63.7383 92.0862 64.4949 92.8428 64.4949 93.7759C64.4949 94.709 63.7385 95.4657 62.8054 95.4657Z" fill="#C7CFE2"/>
<path d="M81.3914 65.0517H17.1846V4.22416C17.1846 3.29105 17.9412 2.53442 18.8743 2.53442H79.7019C80.635 2.53442 81.3916 3.29105 81.3916 4.22416V65.0517H81.3914Z" fill="#EFF2FA"/>
<path d="M74.6334 22.8104H23.9436C23.0105 22.8104 22.2539 22.0537 22.2539 21.1206V9.29325C22.2539 8.36014 23.0105 7.60352 23.9436 7.60352H74.6334C75.5665 7.60352 76.3231 8.36014 76.3231 9.29325V21.1208C76.3229 22.0539 75.5665 22.8104 74.6334 22.8104Z" fill="#F7ABAF"/>
<path d="M73.7883 32.9482H24.7883C23.3886 32.9482 22.2539 31.8134 22.2539 30.4138C22.2539 29.0141 23.3888 27.8794 24.7883 27.8794H73.7883C75.1881 27.8794 76.3227 29.0142 76.3227 30.4138C76.3227 31.8134 75.1881 32.9482 73.7883 32.9482Z" fill="#FF6464"/>
<path d="M74.6338 41.3966H52.6683C51.7351 41.3966 50.9785 40.6399 50.9785 39.7068C50.9785 38.7737 51.7351 38.0171 52.6683 38.0171H74.6338C75.5669 38.0171 76.3236 38.7737 76.3236 39.7068C76.3234 40.6399 75.5669 41.3966 74.6338 41.3966Z" fill="#AFB9D2"/>
<path d="M45.9092 41.3966H23.9436C23.0105 41.3966 22.2539 40.6399 22.2539 39.7068C22.2539 38.7737 23.0105 38.0171 23.9436 38.0171H45.9092C46.8423 38.0171 47.599 38.7737 47.599 39.7068C47.5988 40.6399 46.8423 41.3966 45.9092 41.3966Z" fill="#AFB9D2"/>
<path d="M74.6338 48.1551H52.6683C51.7351 48.1551 50.9785 47.3985 50.9785 46.4654C50.9785 45.5323 51.7351 44.7756 52.6683 44.7756H74.6338C75.5669 44.7756 76.3236 45.5323 76.3236 46.4654C76.3234 47.3987 75.5669 48.1551 74.6338 48.1551Z" fill="#C7CFE2"/>
<path d="M45.9092 48.1551H23.9436C23.0105 48.1551 22.2539 47.3985 22.2539 46.4654C22.2539 45.5323 23.0105 44.7756 23.9436 44.7756H45.9092C46.8423 44.7756 47.599 45.5323 47.599 46.4654C47.5988 47.3987 46.8423 48.1551 45.9092 48.1551Z" fill="#C7CFE2"/>
<path d="M74.6338 54.9139H52.6683C51.7351 54.9139 50.9785 54.1573 50.9785 53.2242C50.9785 52.2911 51.7351 51.5344 52.6683 51.5344H74.6338C75.5669 51.5344 76.3236 52.2911 76.3236 53.2242C76.3234 54.1573 75.5669 54.9139 74.6338 54.9139Z" fill="#C7CFE2"/>
<path d="M74.6338 61.6724H52.6683C51.7351 61.6724 50.9785 60.9158 50.9785 59.9827C50.9785 59.0496 51.7351 58.293 52.6683 58.293H74.6338C75.5669 58.293 76.3236 59.0496 76.3236 59.9827C76.3234 60.9158 75.5669 61.6724 74.6338 61.6724Z" fill="#C7CFE2"/>
<path d="M45.9092 54.9139H23.9436C23.0105 54.9139 22.2539 54.1573 22.2539 53.2242C22.2539 52.2911 23.0105 51.5344 23.9436 51.5344H45.9092C46.8423 51.5344 47.599 52.2911 47.599 53.2242C47.5988 54.1573 46.8423 54.9139 45.9092 54.9139Z" fill="#C7CFE2"/>
<path d="M47.5986 65.0518H22.2539V59.8804C22.2539 59.0039 22.9644 58.2932 23.841 58.2932H46.0116C46.8881 58.2932 47.5988 59.0037 47.5988 59.8804V65.0518H47.5986V65.0518Z" fill="#E4EAF6"/>
<path d="M84.7712 48.155H78.0127V90.3965H84.7712V48.155Z" fill="#FF6464"/>
<path d="M81.392 48.155H78.0127V90.3965H81.392V48.155Z" fill="#D2555A"/>
<path d="M78.0127 48.1552L80.9002 36.605C81.0283 36.0929 81.7558 36.0929 81.8839 36.605L84.7712 48.1552H78.0127Z" fill="#FFE6A1"/>
<path d="M80.9002 36.605L79.7021 41.3966H83.0814L81.8834 36.605C81.7556 36.0929 81.0282 36.0929 80.9002 36.605Z" fill="#FF6464"/>
<path d="M83.0817 95.4655H79.7024C78.7693 95.4655 78.0127 94.7089 78.0127 93.7758V90.3965H84.7712V93.7758C84.7712 94.7089 84.0148 95.4655 83.0817 95.4655Z" fill="#FFE6A1"/>
<path d="M81.392 93.7758V90.3965H78.0127V93.7758C78.0127 94.7089 78.7693 95.4655 79.7024 95.4655H83.0817C82.1486 95.4655 81.392 94.7089 81.392 93.7758Z" fill="#FFDC9B"/>
</g>
<defs>
<clipPath id="clip0_16552_887">
<rect width="98" height="98" fill="white" transform="translate(0.288086)"/>
</clipPath>
</defs>
</svg>
