<svg width="99" height="98" viewBox="0 0 99 98" fill="none" xmlns="http://www.w3.org/2000/svg">
<g clip-path="url(#clip0_16553_1575)">
<path d="M94.9078 80.2585H3.66639C1.79998 80.2585 0.287109 78.7456 0.287109 76.8792V16.0516C0.287109 14.1852 1.79998 12.6724 3.66639 12.6724H94.9078C96.7742 12.6724 98.2871 14.1852 98.2871 16.0516V76.8792C98.2871 78.7456 96.7742 80.2585 94.9078 80.2585Z" fill="#464655"/>
<path d="M93.2174 17.7415H5.35547V65.0517H93.2174V17.7415Z" fill="#959CB3"/>
<path d="M0.287109 70.1206V76.8792C0.287109 78.7456 1.79998 80.2584 3.66639 80.2584H94.9078C96.7742 80.2584 98.2871 78.7456 98.2871 76.8792V70.1206H0.287109V70.1206Z" fill="#C7CFE2"/>
<path d="M62.8041 93.7758H35.7695L37.4593 80.2585H61.1144L62.8041 93.7758Z" fill="#AFB9D2"/>
<path d="M61.5371 83.638L61.1147 80.2585H37.4595L37.0371 83.638H61.5371Z" fill="#959CB3"/>
<path d="M49.2864 77.7241C50.6861 77.7241 51.8208 76.5894 51.8208 75.1897C51.8208 73.79 50.6861 72.6553 49.2864 72.6553C47.8866 72.6553 46.752 73.79 46.752 75.1897C46.752 76.5894 47.8866 77.7241 49.2864 77.7241Z" fill="#959CB3"/>
<path d="M62.8044 95.4657H35.7698C34.8367 95.4657 34.0801 94.709 34.0801 93.7759C34.0801 92.8428 34.8367 92.0862 35.7698 92.0862H62.8042C63.7373 92.0862 64.494 92.8428 64.494 93.7759C64.494 94.709 63.7375 95.4657 62.8044 95.4657Z" fill="#C7CFE2"/>
<path d="M81.3904 65.0517H17.1836V4.22416C17.1836 3.29105 17.9402 2.53442 18.8733 2.53442H79.7009C80.634 2.53442 81.3906 3.29105 81.3906 4.22416V65.0517H81.3904Z" fill="#EFF2FA"/>
<path d="M74.6314 22.8104H23.9417C23.0086 22.8104 22.252 22.0537 22.252 21.1206V9.29325C22.252 8.36014 23.0086 7.60352 23.9417 7.60352H74.6314C75.5645 7.60352 76.3212 8.36014 76.3212 9.29325V21.1208C76.321 22.0539 75.5645 22.8104 74.6314 22.8104Z" fill="#F7ABAF"/>
<path d="M73.7864 32.9482H24.7864C23.3866 32.9482 22.252 31.8134 22.252 30.4138C22.252 29.0141 23.3868 27.8794 24.7864 27.8794H73.7864C75.1861 27.8794 76.3208 29.0142 76.3208 30.4138C76.3208 31.8134 75.1861 32.9482 73.7864 32.9482Z" fill="#FF6464"/>
<path d="M74.6319 41.3966H52.6663C51.7332 41.3966 50.9766 40.6399 50.9766 39.7068C50.9766 38.7737 51.7332 38.0171 52.6663 38.0171H74.6319C75.565 38.0171 76.3216 38.7737 76.3216 39.7068C76.3214 40.6399 75.565 41.3966 74.6319 41.3966Z" fill="#AFB9D2"/>
<path d="M45.9073 41.3966H23.9417C23.0086 41.3966 22.252 40.6399 22.252 39.7068C22.252 38.7737 23.0086 38.0171 23.9417 38.0171H45.9073C46.8404 38.0171 47.597 38.7737 47.597 39.7068C47.5968 40.6399 46.8404 41.3966 45.9073 41.3966Z" fill="#AFB9D2"/>
<path d="M74.6319 48.1551H52.6663C51.7332 48.1551 50.9766 47.3985 50.9766 46.4654C50.9766 45.5323 51.7332 44.7756 52.6663 44.7756H74.6319C75.565 44.7756 76.3216 45.5323 76.3216 46.4654C76.3214 47.3987 75.565 48.1551 74.6319 48.1551Z" fill="#C7CFE2"/>
<path d="M45.9073 48.1551H23.9417C23.0086 48.1551 22.252 47.3985 22.252 46.4654C22.252 45.5323 23.0086 44.7756 23.9417 44.7756H45.9073C46.8404 44.7756 47.597 45.5323 47.597 46.4654C47.5968 47.3987 46.8404 48.1551 45.9073 48.1551Z" fill="#C7CFE2"/>
<path d="M74.6319 54.9139H52.6663C51.7332 54.9139 50.9766 54.1573 50.9766 53.2242C50.9766 52.2911 51.7332 51.5344 52.6663 51.5344H74.6319C75.565 51.5344 76.3216 52.2911 76.3216 53.2242C76.3214 54.1573 75.565 54.9139 74.6319 54.9139Z" fill="#C7CFE2"/>
<path d="M74.6319 61.6724H52.6663C51.7332 61.6724 50.9766 60.9158 50.9766 59.9827C50.9766 59.0496 51.7332 58.293 52.6663 58.293H74.6319C75.565 58.293 76.3216 59.0496 76.3216 59.9827C76.3214 60.9158 75.565 61.6724 74.6319 61.6724Z" fill="#C7CFE2"/>
<path d="M45.9073 54.9139H23.9417C23.0086 54.9139 22.252 54.1573 22.252 53.2242C22.252 52.2911 23.0086 51.5344 23.9417 51.5344H45.9073C46.8404 51.5344 47.597 52.2911 47.597 53.2242C47.5968 54.1573 46.8404 54.9139 45.9073 54.9139Z" fill="#C7CFE2"/>
<path d="M47.5966 65.0518H22.252V59.8804C22.252 59.0039 22.9625 58.2932 23.8391 58.2932H46.0097C46.8861 58.2932 47.5968 59.0037 47.5968 59.8804V65.0518H47.5966V65.0518Z" fill="#E4EAF6"/>
<path d="M84.7703 48.155H78.0117V90.3965H84.7703V48.155Z" fill="#FF6464"/>
<path d="M81.391 48.155H78.0117V90.3965H81.391V48.155Z" fill="#D2555A"/>
<path d="M78.0117 48.1552L80.8993 36.605C81.0273 36.0929 81.7549 36.0929 81.8829 36.605L84.7703 48.1552H78.0117Z" fill="#FFE6A1"/>
<path d="M80.8992 36.605L79.7012 41.3966H83.0804L81.8824 36.605C81.7546 36.0929 81.0272 36.0929 80.8992 36.605Z" fill="#FF6464"/>
<path d="M83.0807 95.4655H79.7015C78.7683 95.4655 78.0117 94.7089 78.0117 93.7758V90.3965H84.7703V93.7758C84.7703 94.7089 84.0138 95.4655 83.0807 95.4655Z" fill="#FFE6A1"/>
<path d="M81.391 93.7758V90.3965H78.0117V93.7758C78.0117 94.7089 78.7683 95.4655 79.7015 95.4655H83.0807C82.1476 95.4655 81.391 94.7089 81.391 93.7758Z" fill="#FFDC9B"/>
</g>
<defs>
<clipPath id="clip0_16553_1575">
<rect width="98" height="98" fill="white" transform="translate(0.287109)"/>
</clipPath>
</defs>
</svg>
