<svg width="99" height="98" viewBox="0 0 99 98" fill="none" xmlns="http://www.w3.org/2000/svg">
<g clip-path="url(#clip0_16553_3706)">
<path d="M94.9086 80.2585H3.66712C1.80072 80.2585 0.287842 78.7456 0.287842 76.8792V16.0516C0.287842 14.1852 1.80072 12.6724 3.66712 12.6724H94.9086C96.775 12.6724 98.2878 14.1852 98.2878 16.0516V76.8792C98.2878 78.7456 96.775 80.2585 94.9086 80.2585Z" fill="#464655"/>
<path d="M93.2188 17.7415H5.35681V65.0517H93.2188V17.7415Z" fill="#959CB3"/>
<path d="M0.287842 70.1206V76.8792C0.287842 78.7456 1.80072 80.2584 3.66712 80.2584H94.9086C96.775 80.2584 98.2878 78.7456 98.2878 76.8792V70.1206H0.287842V70.1206Z" fill="#C7CFE2"/>
<path d="M62.8051 93.7758H35.7705L37.4602 80.2585H61.1154L62.8051 93.7758Z" fill="#AFB9D2"/>
<path d="M61.5378 83.638L61.1154 80.2585H37.4603L37.0378 83.638H61.5378Z" fill="#959CB3"/>
<path d="M49.2878 77.7241C50.6875 77.7241 51.8222 76.5894 51.8222 75.1897C51.8222 73.79 50.6875 72.6553 49.2878 72.6553C47.8881 72.6553 46.7534 73.79 46.7534 75.1897C46.7534 76.5894 47.8881 77.7241 49.2878 77.7241Z" fill="#959CB3"/>
<path d="M62.8051 95.4657H35.7705C34.8374 95.4657 34.0808 94.709 34.0808 93.7759C34.0808 92.8428 34.8374 92.0862 35.7705 92.0862H62.805C63.7381 92.0862 64.4947 92.8428 64.4947 93.7759C64.4947 94.709 63.7383 95.4657 62.8051 95.4657Z" fill="#C7CFE2"/>
<path d="M81.3913 65.0517H17.1844V4.22416C17.1844 3.29105 17.9411 2.53442 18.8742 2.53442H79.7017C80.6348 2.53442 81.3915 3.29105 81.3915 4.22416V65.0517H81.3913Z" fill="#EFF2FA"/>
<path d="M74.6328 22.8104H23.943C23.0099 22.8104 22.2533 22.0537 22.2533 21.1206V9.29325C22.2533 8.36014 23.0099 7.60352 23.943 7.60352H74.6328C75.5659 7.60352 76.3225 8.36014 76.3225 9.29325V21.1208C76.3223 22.0539 75.5659 22.8104 74.6328 22.8104Z" fill="#F7ABAF"/>
<path d="M73.7878 32.9482H24.7878C23.3881 32.9482 22.2534 31.8134 22.2534 30.4138C22.2534 29.0141 23.3883 27.8794 24.7878 27.8794H73.7878C75.1876 27.8794 76.3222 29.0142 76.3222 30.4138C76.3222 31.8134 75.1876 32.9482 73.7878 32.9482Z" fill="#FF6464"/>
<path d="M74.6327 41.3966H52.6672C51.734 41.3966 50.9774 40.6399 50.9774 39.7068C50.9774 38.7737 51.734 38.0171 52.6672 38.0171H74.6327C75.5658 38.0171 76.3225 38.7737 76.3225 39.7068C76.3223 40.6399 75.5658 41.3966 74.6327 41.3966Z" fill="#AFB9D2"/>
<path d="M45.9086 41.3966H23.943C23.0099 41.3966 22.2533 40.6399 22.2533 39.7068C22.2533 38.7737 23.0099 38.0171 23.943 38.0171H45.9086C46.8417 38.0171 47.5984 38.7737 47.5984 39.7068C47.5982 40.6399 46.8417 41.3966 45.9086 41.3966Z" fill="#AFB9D2"/>
<path d="M74.6327 48.1551H52.6672C51.734 48.1551 50.9774 47.3985 50.9774 46.4654C50.9774 45.5323 51.734 44.7756 52.6672 44.7756H74.6327C75.5658 44.7756 76.3225 45.5323 76.3225 46.4654C76.3223 47.3987 75.5658 48.1551 74.6327 48.1551Z" fill="#C7CFE2"/>
<path d="M45.9086 48.1551H23.943C23.0099 48.1551 22.2533 47.3985 22.2533 46.4654C22.2533 45.5323 23.0099 44.7756 23.943 44.7756H45.9086C46.8417 44.7756 47.5984 45.5323 47.5984 46.4654C47.5982 47.3987 46.8417 48.1551 45.9086 48.1551Z" fill="#C7CFE2"/>
<path d="M74.6327 54.9139H52.6672C51.734 54.9139 50.9774 54.1573 50.9774 53.2242C50.9774 52.2911 51.734 51.5344 52.6672 51.5344H74.6327C75.5658 51.5344 76.3225 52.2911 76.3225 53.2242C76.3223 54.1573 75.5658 54.9139 74.6327 54.9139Z" fill="#C7CFE2"/>
<path d="M74.6327 61.6724H52.6672C51.734 61.6724 50.9774 60.9158 50.9774 59.9827C50.9774 59.0496 51.734 58.293 52.6672 58.293H74.6327C75.5658 58.293 76.3225 59.0496 76.3225 59.9827C76.3223 60.9158 75.5658 61.6724 74.6327 61.6724Z" fill="#C7CFE2"/>
<path d="M45.9086 54.9139H23.943C23.0099 54.9139 22.2533 54.1573 22.2533 53.2242C22.2533 52.2911 23.0099 51.5344 23.943 51.5344H45.9086C46.8417 51.5344 47.5984 52.2911 47.5984 53.2242C47.5982 54.1573 46.8417 54.9139 45.9086 54.9139Z" fill="#C7CFE2"/>
<path d="M47.5981 65.0518H22.2534V59.8804C22.2534 59.0039 22.9639 58.2932 23.8406 58.2932H46.0111C46.8876 58.2932 47.5983 59.0037 47.5983 59.8804V65.0518H47.5981V65.0518Z" fill="#E4EAF6"/>
<path d="M84.7705 48.155H78.012V90.3965H84.7705V48.155Z" fill="#FF6464"/>
<path d="M81.3912 48.155H78.012V90.3965H81.3912V48.155Z" fill="#D2555A"/>
<path d="M78.012 48.1552L80.8995 36.605C81.0276 36.0929 81.7551 36.0929 81.8832 36.605L84.7705 48.1552H78.012Z" fill="#FFE6A1"/>
<path d="M80.8996 36.605L79.7015 41.3966H83.0808L81.8828 36.605C81.7549 36.0929 81.0276 36.0929 80.8996 36.605Z" fill="#FF6464"/>
<path d="M83.081 95.4655H79.7017C78.7686 95.4655 78.012 94.7089 78.012 93.7758V90.3965H84.7705V93.7758C84.7705 94.7089 84.0141 95.4655 83.081 95.4655Z" fill="#FFE6A1"/>
<path d="M81.3912 93.7758V90.3965H78.012V93.7758C78.012 94.7089 78.7686 95.4655 79.7017 95.4655H83.081C82.1479 95.4655 81.3912 94.7089 81.3912 93.7758Z" fill="#FFDC9B"/>
</g>
<defs>
<clipPath id="clip0_16553_3706">
<rect width="98" height="98" fill="white" transform="translate(0.287842)"/>
</clipPath>
</defs>
</svg>
