<svg width="99" height="98" viewBox="0 0 99 98" fill="none" xmlns="http://www.w3.org/2000/svg">
<g clip-path="url(#clip0_16553_1076)">
<path d="M94.9088 80.2585H3.66736C1.80096 80.2585 0.288086 78.7456 0.288086 76.8792V16.0516C0.288086 14.1852 1.80096 12.6724 3.66736 12.6724H94.9088C96.7752 12.6724 98.2881 14.1852 98.2881 16.0516V76.8792C98.2881 78.7456 96.7752 80.2585 94.9088 80.2585Z" fill="#464655"/>
<path d="M93.2189 17.7415H5.35693V65.0517H93.2189V17.7415Z" fill="#959CB3"/>
<path d="M0.288086 70.1206V76.8792C0.288086 78.7456 1.80096 80.2584 3.66736 80.2584H94.9088C96.7752 80.2584 98.2881 78.7456 98.2881 76.8792V70.1206H0.288086V70.1206Z" fill="#C7CFE2"/>
<path d="M62.8056 93.7758H35.771L37.4607 80.2585H61.1159L62.8056 93.7758Z" fill="#AFB9D2"/>
<path d="M61.5381 83.638L61.1157 80.2585H37.4605L37.0381 83.638H61.5381Z" fill="#959CB3"/>
<path d="M49.2883 77.7241C50.688 77.7241 51.8227 76.5894 51.8227 75.1897C51.8227 73.79 50.688 72.6553 49.2883 72.6553C47.8886 72.6553 46.7539 73.79 46.7539 75.1897C46.7539 76.5894 47.8886 77.7241 49.2883 77.7241Z" fill="#959CB3"/>
<path d="M62.8054 95.4657H35.7708C34.8377 95.4657 34.0811 94.709 34.0811 93.7759C34.0811 92.8428 34.8377 92.0862 35.7708 92.0862H62.8052C63.7383 92.0862 64.4949 92.8428 64.4949 93.7759C64.4949 94.709 63.7385 95.4657 62.8054 95.4657Z" fill="#C7CFE2"/>
<path d="M81.3914 65.0517H17.1846V4.22416C17.1846 3.29105 17.9412 2.53442 18.8743 2.53442H79.7019C80.635 2.53442 81.3916 3.29105 81.3916 4.22416V65.0517H81.3914Z" fill="#EFF2FA"/>
<path d="M74.6329 22.8104H23.9432C23.01 22.8104 22.2534 22.0537 22.2534 21.1206V9.29325C22.2534 8.36014 23.01 7.60352 23.9432 7.60352H74.6329C75.566 7.60352 76.3226 8.36014 76.3226 9.29325V21.1208C76.3224 22.0539 75.566 22.8104 74.6329 22.8104Z" fill="#F7ABAF"/>
<path d="M73.7883 32.9482H24.7883C23.3886 32.9482 22.2539 31.8134 22.2539 30.4138C22.2539 29.0141 23.3888 27.8794 24.7883 27.8794H73.7883C75.1881 27.8794 76.3227 29.0142 76.3227 30.4138C76.3227 31.8134 75.1881 32.9482 73.7883 32.9482Z" fill="#FF6464"/>
<path d="M74.6329 41.3966H52.6673C51.7342 41.3966 50.9775 40.6399 50.9775 39.7068C50.9775 38.7737 51.7342 38.0171 52.6673 38.0171H74.6329C75.566 38.0171 76.3226 38.7737 76.3226 39.7068C76.3224 40.6399 75.566 41.3966 74.6329 41.3966Z" fill="#AFB9D2"/>
<path d="M45.9087 41.3966H23.9432C23.01 41.3966 22.2534 40.6399 22.2534 39.7068C22.2534 38.7737 23.01 38.0171 23.9432 38.0171H45.9087C46.8418 38.0171 47.5985 38.7737 47.5985 39.7068C47.5983 40.6399 46.8418 41.3966 45.9087 41.3966Z" fill="#AFB9D2"/>
<path d="M74.6329 48.1551H52.6673C51.7342 48.1551 50.9775 47.3985 50.9775 46.4654C50.9775 45.5323 51.7342 44.7756 52.6673 44.7756H74.6329C75.566 44.7756 76.3226 45.5323 76.3226 46.4654C76.3224 47.3987 75.566 48.1551 74.6329 48.1551Z" fill="#C7CFE2"/>
<path d="M45.9087 48.1551H23.9432C23.01 48.1551 22.2534 47.3985 22.2534 46.4654C22.2534 45.5323 23.01 44.7756 23.9432 44.7756H45.9087C46.8418 44.7756 47.5985 45.5323 47.5985 46.4654C47.5983 47.3987 46.8418 48.1551 45.9087 48.1551Z" fill="#C7CFE2"/>
<path d="M74.6329 54.9139H52.6673C51.7342 54.9139 50.9775 54.1573 50.9775 53.2242C50.9775 52.2911 51.7342 51.5344 52.6673 51.5344H74.6329C75.566 51.5344 76.3226 52.2911 76.3226 53.2242C76.3224 54.1573 75.566 54.9139 74.6329 54.9139Z" fill="#C7CFE2"/>
<path d="M74.6329 61.6724H52.6673C51.7342 61.6724 50.9775 60.9158 50.9775 59.9827C50.9775 59.0496 51.7342 58.293 52.6673 58.293H74.6329C75.566 58.293 76.3226 59.0496 76.3226 59.9827C76.3224 60.9158 75.566 61.6724 74.6329 61.6724Z" fill="#C7CFE2"/>
<path d="M45.9087 54.9139H23.9432C23.01 54.9139 22.2534 54.1573 22.2534 53.2242C22.2534 52.2911 23.01 51.5344 23.9432 51.5344H45.9087C46.8418 51.5344 47.5985 52.2911 47.5985 53.2242C47.5983 54.1573 46.8418 54.9139 45.9087 54.9139Z" fill="#C7CFE2"/>
<path d="M47.5986 65.0518H22.2539V59.8804C22.2539 59.0039 22.9644 58.2932 23.841 58.2932H46.0116C46.8881 58.2932 47.5988 59.0037 47.5988 59.8804V65.0518H47.5986V65.0518Z" fill="#E4EAF6"/>
<path d="M84.7708 48.155H78.0122V90.3965H84.7708V48.155Z" fill="#FF6464"/>
<path d="M81.3915 48.155H78.0122V90.3965H81.3915V48.155Z" fill="#D2555A"/>
<path d="M78.0122 48.1552L80.8998 36.605C81.0278 36.0929 81.7553 36.0929 81.8834 36.605L84.7708 48.1552H78.0122Z" fill="#FFE6A1"/>
<path d="M80.8997 36.605L79.7017 41.3966H83.0809L81.8829 36.605C81.7551 36.0929 81.0277 36.0929 80.8997 36.605Z" fill="#FF6464"/>
<path d="M83.0812 95.4655H79.7019C78.7688 95.4655 78.0122 94.7089 78.0122 93.7758V90.3965H84.7708V93.7758C84.7708 94.7089 84.0143 95.4655 83.0812 95.4655Z" fill="#FFE6A1"/>
<path d="M81.3915 93.7758V90.3965H78.0122V93.7758C78.0122 94.7089 78.7688 95.4655 79.7019 95.4655H83.0812C82.1481 95.4655 81.3915 94.7089 81.3915 93.7758Z" fill="#FFDC9B"/>
</g>
<defs>
<clipPath id="clip0_16553_1076">
<rect width="98" height="98" fill="white" transform="translate(0.288086)"/>
</clipPath>
</defs>
</svg>
