<svg width="24" height="24" viewBox="0 0 24 24" fill="none" xmlns="http://www.w3.org/2000/svg">
<path fill-rule="evenodd" clip-rule="evenodd" d="M12 24C18.6274 24 24 18.6274 24 12C24 5.37258 18.6274 0 12 0C5.37258 0 0 5.37258 0 12C0 18.6274 5.37258 24 12 24Z" fill="#F7931A"/>
<path fill-rule="evenodd" clip-rule="evenodd" d="M17.2912 10.6654C17.5297 9.06865 16.314 8.21027 14.6516 7.63765L15.1908 5.47465L13.8738 5.14652L13.3488 7.25252C13.0031 7.16627 12.6476 7.0849 12.2943 7.00427L12.8231 4.8844L11.5072 4.55627L10.9676 6.71852C10.6811 6.65327 10.3998 6.58877 10.1268 6.5209L10.1283 6.51415L8.31258 6.06077L7.96233 7.46702C7.96233 7.46702 8.9392 7.6909 8.91858 7.70477C9.45183 7.8379 9.54858 8.19077 9.53208 8.47052L8.91783 10.9346C8.95458 10.944 9.0022 10.9575 9.0547 10.9785L8.91595 10.944L8.05458 14.3959C7.98933 14.5579 7.82395 14.8009 7.4512 14.7086C7.46433 14.7278 6.4942 14.4698 6.4942 14.4698L5.84058 15.9773L7.55433 16.4044C7.74779 16.4529 7.9389 16.5027 8.12792 16.5521C8.25033 16.584 8.37186 16.6157 8.49258 16.6466L7.9477 18.8348L9.26283 19.1629L9.80283 16.9984C10.1617 17.0959 10.5105 17.1859 10.8517 17.2706L10.314 19.425L11.6306 19.7531L12.1755 17.5695C14.4206 17.9944 16.1092 17.823 16.8191 15.7928C17.3917 14.1578 16.791 13.2146 15.6097 12.5993C16.47 12.4001 17.1183 11.8343 17.2912 10.6654ZM14.2826 14.8838C13.9088 16.3844 11.5594 15.7635 10.4855 15.4797C10.3893 15.4542 10.3033 15.4315 10.23 15.4133L10.953 12.5149C11.0426 12.5373 11.1522 12.5619 11.2764 12.5897C12.3874 12.8391 14.6641 13.35 14.2826 14.8838ZM11.4997 11.2448C12.3958 11.4839 14.3492 12.005 14.6894 10.6418C15.0373 9.24718 13.1379 8.82684 12.2103 8.62156C12.106 8.59848 12.014 8.57812 11.9388 8.5594L11.2833 11.1881C11.3453 11.2036 11.4181 11.223 11.4997 11.2448Z" fill="white"/>
</svg>
