<svg width="18" height="18" viewBox="0 0 18 18" fill="none" xmlns="http://www.w3.org/2000/svg">
<path fill-rule="evenodd" clip-rule="evenodd" d="M5.50563 7.56345L9.00167 4.06893L12.4991 7.56629L14.5322 5.53185L9.00167 6.10352e-05L3.47113 5.53043L5.50563 7.56345ZM0 9.00034L2.03376 6.96664L4.06751 9.00034L2.03376 11.034L0 9.00034ZM9.00165 13.9325L5.50561 10.4365L3.46826 12.4681L3.47111 12.471L9.00165 17.9999L14.5322 12.4681L14.5336 12.4667L12.4991 10.4351L9.00165 13.9325ZM13.9321 9.00079L15.9659 6.9671L17.9996 9.00079L15.9659 11.0345L13.9321 9.00079ZM9.00133 6.93488L11.0643 8.99917H11.0657L11.0643 9.00059L9.00133 11.0649L6.93839 9.00343L6.93555 8.99917L6.93839 8.99632L7.29951 8.63522L7.47581 8.46035L9.00133 6.93488Z" fill="#F3BA2F"/>
</svg>
