<svg width="16" height="16" viewBox="0 0 16 16" fill="none" xmlns="http://www.w3.org/2000/svg">
<path d="M3.33366 7.99998H3.34033M8.00033 7.99998H8.00699M12.667 7.99998H12.6737M4.00033 7.99998C4.00033 8.36817 3.70185 8.66665 3.33366 8.66665C2.96547 8.66665 2.66699 8.36817 2.66699 7.99998C2.66699 7.63179 2.96547 7.33331 3.33366 7.33331C3.70185 7.33331 4.00033 7.63179 4.00033 7.99998ZM8.66699 7.99998C8.66699 8.36817 8.36852 8.66665 8.00033 8.66665C7.63214 8.66665 7.33366 8.36817 7.33366 7.99998C7.33366 7.63179 7.63214 7.33331 8.00033 7.33331C8.36852 7.33331 8.66699 7.63179 8.66699 7.99998ZM13.3337 7.99998C13.3337 8.36817 13.0352 8.66665 12.667 8.66665C12.2988 8.66665 12.0003 8.36817 12.0003 7.99998C12.0003 7.63179 12.2988 7.33331 12.667 7.33331C13.0352 7.33331 13.3337 7.63179 13.3337 7.99998Z" stroke="#976400" stroke-width="1.33333" stroke-linecap="round" stroke-linejoin="round"/>
</svg>
