<svg width="101" height="100" viewBox="0 0 101 100" fill="none" xmlns="http://www.w3.org/2000/svg">
<path d="M27.8711 62.5H73.7044V87.5H27.8711V62.5Z" fill="#BF360C"/>
<path d="M21.6204 62.4999C26.2228 62.4999 29.9538 58.769 29.9538 54.1666C29.9538 49.5642 26.2228 45.8333 21.6204 45.8333C17.0181 45.8333 13.2871 49.5642 13.2871 54.1666C13.2871 58.769 17.0181 62.4999 21.6204 62.4999Z" fill="#FFA726"/>
<path d="M79.9544 62.4999C84.5568 62.4999 88.2878 58.769 88.2878 54.1666C88.2878 49.5642 84.5568 45.8333 79.9544 45.8333C75.3521 45.8333 71.6211 49.5642 71.6211 54.1666C71.6211 58.769 75.3521 62.4999 79.9544 62.4999Z" fill="#FFA726"/>
<path d="M82.0371 39.5833C82.0371 13.1249 19.5371 22.2916 19.5371 39.5833V60.4166C19.5371 77.7083 33.4954 91.6666 50.7871 91.6666C68.0788 91.6666 82.0371 77.7083 82.0371 60.4166V39.5833Z" fill="#FFB74D"/>
<path d="M63.2878 58.3333C65.5889 58.3333 67.4544 56.4679 67.4544 54.1667C67.4544 51.8655 65.5889 50 63.2878 50C60.9866 50 59.1211 51.8655 59.1211 54.1667C59.1211 56.4679 60.9866 58.3333 63.2878 58.3333Z" fill="#784719"/>
<path d="M38.2878 58.3333C40.5889 58.3333 42.4544 56.4679 42.4544 54.1667C42.4544 51.8655 40.5889 50 38.2878 50C35.9866 50 34.1211 51.8655 34.1211 54.1667C34.1211 56.4679 35.9866 58.3333 38.2878 58.3333Z" fill="#784719"/>
<path d="M50.7871 4.16675C33.0788 4.16675 7.03711 16.2501 7.03711 74.1668L27.8704 87.5001V50.0001L62.8704 29.5834L73.7038 43.7501V87.5001L94.5371 70.4168C94.5371 58.7501 92.6621 10.0001 62.4538 10.0001L59.5371 4.16675H50.7871Z" fill="#FF5722"/>
<path d="M94.5371 50.0001C93.2871 50.0001 92.4538 50.8334 92.4538 52.0834V37.5001C92.4538 19.1667 77.4538 4.16675 59.1204 4.16675H40.3704C39.1204 4.16675 38.2871 5.00008 38.2871 6.25008C38.2871 7.50008 39.1204 8.33342 40.3704 8.33342H59.1204C75.1621 8.33342 88.2871 21.4584 88.2871 37.5001V58.3334C88.2871 59.5834 89.1204 60.4168 90.3704 60.4168C91.6204 60.4168 92.4538 59.5834 92.4538 58.3334V62.5001C92.4538 70.6251 85.9954 77.0834 77.8704 77.0834H50.7871C49.5371 77.0834 48.7038 77.9168 48.7038 79.1668C48.7038 80.4168 49.5371 81.2501 50.7871 81.2501H77.8704C88.2871 81.2501 96.6204 72.9168 96.6204 62.5001V52.0834C96.6204 50.8334 95.7871 50.0001 94.5371 50.0001Z" fill="#757575"/>
<path d="M94.5371 45.8333H92.4538C90.1621 45.8333 88.2871 47.7083 88.2871 49.9999V58.3333C88.2871 60.6249 90.1621 62.4999 92.4538 62.4999H94.5371C96.8288 62.4999 98.7038 60.6249 98.7038 58.3333V49.9999C98.7038 47.7083 96.8288 45.8333 94.5371 45.8333Z" fill="#37474F"/>
<path d="M50.7878 83.3333C53.0889 83.3333 54.9544 81.4679 54.9544 79.1667C54.9544 76.8655 53.0889 75 50.7878 75C48.4866 75 46.6211 76.8655 46.6211 79.1667C46.6211 81.4679 48.4866 83.3333 50.7878 83.3333Z" fill="#37474F"/>
</svg>
