<svg width="101" height="100" viewBox="0 0 101 100" fill="none" xmlns="http://www.w3.org/2000/svg">
<path d="M27.8711 62.5H73.7044V87.5H27.8711V62.5Z" fill="#BF360C"/>
<path d="M21.6212 62.4999C26.2235 62.4999 29.9545 58.769 29.9545 54.1666C29.9545 49.5642 26.2235 45.8333 21.6212 45.8333C17.0188 45.8333 13.2878 49.5642 13.2878 54.1666C13.2878 58.769 17.0188 62.4999 21.6212 62.4999Z" fill="#FFA726"/>
<path d="M79.9544 62.4999C84.5568 62.4999 88.2878 58.769 88.2878 54.1666C88.2878 49.5642 84.5568 45.8333 79.9544 45.8333C75.3521 45.8333 71.6211 49.5642 71.6211 54.1666C71.6211 58.769 75.3521 62.4999 79.9544 62.4999Z" fill="#FFA726"/>
<path d="M82.0378 39.5833C82.0378 13.1249 19.5378 22.2916 19.5378 39.5833V60.4166C19.5378 77.7083 33.4962 91.6666 50.7878 91.6666C68.0795 91.6666 82.0378 77.7083 82.0378 60.4166V39.5833Z" fill="#FFB74D"/>
<path d="M63.2878 58.3333C65.5889 58.3333 67.4544 56.4679 67.4544 54.1667C67.4544 51.8655 65.5889 50 63.2878 50C60.9866 50 59.1211 51.8655 59.1211 54.1667C59.1211 56.4679 60.9866 58.3333 63.2878 58.3333Z" fill="#784719"/>
<path d="M38.2878 58.3333C40.5889 58.3333 42.4544 56.4679 42.4544 54.1667C42.4544 51.8655 40.5889 50 38.2878 50C35.9866 50 34.1211 51.8655 34.1211 54.1667C34.1211 56.4679 35.9866 58.3333 38.2878 58.3333Z" fill="#784719"/>
<path d="M50.7878 4.16675C33.0795 4.16675 7.03784 16.2501 7.03784 74.1668L27.8712 87.5001V50.0001L62.8712 29.5834L73.7045 43.7501V87.5001L94.5378 70.4168C94.5378 58.7501 92.6628 10.0001 62.4545 10.0001L59.5378 4.16675H50.7878Z" fill="#FF5722"/>
<path d="M94.5378 50.0001C93.2878 50.0001 92.4545 50.8334 92.4545 52.0834V37.5001C92.4545 19.1667 77.4545 4.16675 59.1212 4.16675H40.3712C39.1212 4.16675 38.2878 5.00008 38.2878 6.25008C38.2878 7.50008 39.1212 8.33342 40.3712 8.33342H59.1212C75.1628 8.33342 88.2878 21.4584 88.2878 37.5001V58.3334C88.2878 59.5834 89.1212 60.4168 90.3712 60.4168C91.6212 60.4168 92.4545 59.5834 92.4545 58.3334V62.5001C92.4545 70.6251 85.9962 77.0834 77.8712 77.0834H50.7878C49.5378 77.0834 48.7045 77.9168 48.7045 79.1668C48.7045 80.4168 49.5378 81.2501 50.7878 81.2501H77.8712C88.2878 81.2501 96.6212 72.9168 96.6212 62.5001V52.0834C96.6212 50.8334 95.7878 50.0001 94.5378 50.0001Z" fill="#757575"/>
<path d="M94.5378 45.8333H92.4545C90.1628 45.8333 88.2878 47.7083 88.2878 49.9999V58.3333C88.2878 60.6249 90.1628 62.4999 92.4545 62.4999H94.5378C96.8295 62.4999 98.7045 60.6249 98.7045 58.3333V49.9999C98.7045 47.7083 96.8295 45.8333 94.5378 45.8333Z" fill="#37474F"/>
<path d="M50.7878 83.3333C53.0889 83.3333 54.9544 81.4679 54.9544 79.1667C54.9544 76.8655 53.0889 75 50.7878 75C48.4866 75 46.6211 76.8655 46.6211 79.1667C46.6211 81.4679 48.4866 83.3333 50.7878 83.3333Z" fill="#37474F"/>
</svg>
