<svg width="101" height="100" viewBox="0 0 101 100" fill="none" xmlns="http://www.w3.org/2000/svg">
<path d="M27.8716 62.5H73.7049V87.5H27.8716V62.5Z" fill="#BF360C"/>
<path d="M21.6214 62.4999C26.2238 62.4999 29.9548 58.769 29.9548 54.1666C29.9548 49.5642 26.2238 45.8333 21.6214 45.8333C17.019 45.8333 13.2881 49.5642 13.2881 54.1666C13.2881 58.769 17.019 62.4999 21.6214 62.4999Z" fill="#FFA726"/>
<path d="M79.9549 62.4999C84.5573 62.4999 88.2882 58.769 88.2882 54.1666C88.2882 49.5642 84.5573 45.8333 79.9549 45.8333C75.3525 45.8333 71.6216 49.5642 71.6216 54.1666C71.6216 58.769 75.3525 62.4999 79.9549 62.4999Z" fill="#FFA726"/>
<path d="M82.0381 39.5833C82.0381 13.1249 19.5381 22.2916 19.5381 39.5833V60.4166C19.5381 77.7083 33.4964 91.6666 50.7881 91.6666C68.0798 91.6666 82.0381 77.7083 82.0381 60.4166V39.5833Z" fill="#FFB74D"/>
<path d="M63.2882 58.3333C65.5894 58.3333 67.4549 56.4679 67.4549 54.1667C67.4549 51.8655 65.5894 50 63.2882 50C60.9871 50 59.1216 51.8655 59.1216 54.1667C59.1216 56.4679 60.9871 58.3333 63.2882 58.3333Z" fill="#784719"/>
<path d="M38.2882 58.3333C40.5894 58.3333 42.4549 56.4679 42.4549 54.1667C42.4549 51.8655 40.5894 50 38.2882 50C35.9871 50 34.1216 51.8655 34.1216 54.1667C34.1216 56.4679 35.9871 58.3333 38.2882 58.3333Z" fill="#784719"/>
<path d="M50.7881 4.16675C33.0798 4.16675 7.03809 16.2501 7.03809 74.1668L27.8714 87.5001V50.0001L62.8714 29.5834L73.7048 43.7501V87.5001L94.5381 70.4168C94.5381 58.7501 92.6631 10.0001 62.4548 10.0001L59.5381 4.16675H50.7881Z" fill="#FF5722"/>
<path d="M94.5381 50.0001C93.2881 50.0001 92.4548 50.8334 92.4548 52.0834V37.5001C92.4548 19.1667 77.4548 4.16675 59.1214 4.16675H40.3714C39.1214 4.16675 38.2881 5.00008 38.2881 6.25008C38.2881 7.50008 39.1214 8.33342 40.3714 8.33342H59.1214C75.1631 8.33342 88.2881 21.4584 88.2881 37.5001V58.3334C88.2881 59.5834 89.1214 60.4168 90.3714 60.4168C91.6214 60.4168 92.4548 59.5834 92.4548 58.3334V62.5001C92.4548 70.6251 85.9964 77.0834 77.8714 77.0834H50.7881C49.5381 77.0834 48.7048 77.9168 48.7048 79.1668C48.7048 80.4168 49.5381 81.2501 50.7881 81.2501H77.8714C88.2881 81.2501 96.6214 72.9168 96.6214 62.5001V52.0834C96.6214 50.8334 95.7881 50.0001 94.5381 50.0001Z" fill="#757575"/>
<path d="M94.5381 45.8333H92.4548C90.1631 45.8333 88.2881 47.7083 88.2881 49.9999V58.3333C88.2881 60.6249 90.1631 62.4999 92.4548 62.4999H94.5381C96.8298 62.4999 98.7048 60.6249 98.7048 58.3333V49.9999C98.7048 47.7083 96.8298 45.8333 94.5381 45.8333Z" fill="#37474F"/>
<path d="M50.7882 83.3333C53.0894 83.3333 54.9549 81.4679 54.9549 79.1667C54.9549 76.8655 53.0894 75 50.7882 75C48.4871 75 46.6216 76.8655 46.6216 79.1667C46.6216 81.4679 48.4871 83.3333 50.7882 83.3333Z" fill="#37474F"/>
</svg>
