<svg width="101" height="100" viewBox="0 0 101 100" fill="none" xmlns="http://www.w3.org/2000/svg">
<path d="M27.8716 62.5H73.7049V87.5H27.8716V62.5Z" fill="#BF360C"/>
<path d="M21.6214 62.5002C26.2238 62.5002 29.9548 58.7692 29.9548 54.1668C29.9548 49.5645 26.2238 45.8335 21.6214 45.8335C17.019 45.8335 13.2881 49.5645 13.2881 54.1668C13.2881 58.7692 17.019 62.5002 21.6214 62.5002Z" fill="#FFA726"/>
<path d="M79.9549 62.5002C84.5573 62.5002 88.2882 58.7692 88.2882 54.1668C88.2882 49.5645 84.5573 45.8335 79.9549 45.8335C75.3525 45.8335 71.6216 49.5645 71.6216 54.1668C71.6216 58.7692 75.3525 62.5002 79.9549 62.5002Z" fill="#FFA726"/>
<path d="M82.0381 39.5835C82.0381 13.1252 19.5381 22.2919 19.5381 39.5835V60.4168C19.5381 77.7085 33.4964 91.6668 50.7881 91.6668C68.0798 91.6668 82.0381 77.7085 82.0381 60.4168V39.5835Z" fill="#FFB74D"/>
<path d="M63.2882 58.3333C65.5894 58.3333 67.4549 56.4679 67.4549 54.1667C67.4549 51.8655 65.5894 50 63.2882 50C60.9871 50 59.1216 51.8655 59.1216 54.1667C59.1216 56.4679 60.9871 58.3333 63.2882 58.3333Z" fill="#784719"/>
<path d="M38.2882 58.3333C40.5894 58.3333 42.4549 56.4679 42.4549 54.1667C42.4549 51.8655 40.5894 50 38.2882 50C35.9871 50 34.1216 51.8655 34.1216 54.1667C34.1216 56.4679 35.9871 58.3333 38.2882 58.3333Z" fill="#784719"/>
<path d="M50.7881 4.1665C33.0798 4.1665 7.03809 16.2498 7.03809 74.1665L27.8714 87.4998V49.9998L62.8714 29.5832L73.7048 43.7498V87.4998L94.5381 70.4165C94.5381 58.7498 92.6631 9.99984 62.4548 9.99984L59.5381 4.1665H50.7881Z" fill="#FF5722"/>
<path d="M94.5381 49.9998C93.2881 49.9998 92.4548 50.8332 92.4548 52.0832V37.4998C92.4548 19.1665 77.4548 4.1665 59.1214 4.1665H40.3714C39.1214 4.1665 38.2881 4.99984 38.2881 6.24984C38.2881 7.49984 39.1214 8.33317 40.3714 8.33317H59.1214C75.1631 8.33317 88.2881 21.4582 88.2881 37.4998V58.3332C88.2881 59.5832 89.1214 60.4165 90.3714 60.4165C91.6214 60.4165 92.4548 59.5832 92.4548 58.3332V62.4998C92.4548 70.6248 85.9964 77.0832 77.8714 77.0832H50.7881C49.5381 77.0832 48.7048 77.9165 48.7048 79.1665C48.7048 80.4165 49.5381 81.2498 50.7881 81.2498H77.8714C88.2881 81.2498 96.6214 72.9165 96.6214 62.4998V52.0832C96.6214 50.8332 95.7881 49.9998 94.5381 49.9998Z" fill="#757575"/>
<path d="M94.5381 45.8335H92.4548C90.1631 45.8335 88.2881 47.7085 88.2881 50.0002V58.3335C88.2881 60.6252 90.1631 62.5002 92.4548 62.5002H94.5381C96.8298 62.5002 98.7048 60.6252 98.7048 58.3335V50.0002C98.7048 47.7085 96.8298 45.8335 94.5381 45.8335Z" fill="#37474F"/>
<path d="M50.7882 83.3333C53.0894 83.3333 54.9549 81.4679 54.9549 79.1667C54.9549 76.8655 53.0894 75 50.7882 75C48.4871 75 46.6216 76.8655 46.6216 79.1667C46.6216 81.4679 48.4871 83.3333 50.7882 83.3333Z" fill="#37474F"/>
</svg>
