<svg width="101" height="100" viewBox="0 0 101 100" fill="none" xmlns="http://www.w3.org/2000/svg">
<g clip-path="url(#clip0_16552_935)">
<path d="M81.0143 59.1866C81.0143 81.4436 62.9061 99.5497 40.6512 99.5497C18.3943 99.5497 0.288086 81.4434 0.288086 59.1866C0.288086 36.9315 18.3943 18.8235 40.6512 18.8235C62.9062 18.8235 81.0143 36.9315 81.0143 59.1866Z" fill="#67BFFF"/>
<path d="M40.6516 27.0298C22.9197 27.0298 8.49512 41.4546 8.49512 59.1862C8.49512 76.9179 22.9199 91.3427 40.6516 91.3427C58.3814 91.3427 72.808 76.9179 72.808 59.1862C72.808 41.4546 58.3814 27.0298 40.6516 27.0298ZM40.6516 85.5606C26.108 85.5606 14.2775 73.728 14.2775 59.1866C14.2775 44.6452 26.108 32.8126 40.6516 32.8126C55.1932 32.8126 67.0236 44.6452 67.0236 59.1866C67.0236 73.728 55.1932 85.5606 40.6516 85.5606Z" fill="white"/>
<path d="M40.6512 41.3496C30.8148 41.3496 22.8145 49.3502 22.8145 59.1863C22.8145 69.0225 30.815 77.023 40.6512 77.023C50.4855 77.023 58.4881 69.0225 58.4881 59.1863C58.4881 49.3502 50.4855 41.3496 40.6512 41.3496ZM40.6512 71.2408C34.0053 71.2408 28.5969 65.8324 28.5969 59.1865C28.5969 52.5406 34.0053 47.1322 40.6512 47.1322C47.2971 47.1322 52.7055 52.5406 52.7055 59.1865C52.7055 65.8324 47.2971 71.2408 40.6512 71.2408Z" fill="white"/>
<path d="M81.0145 59.1866C81.0145 81.4436 62.9062 99.5497 40.6514 99.5497V18.8235C62.9064 18.8235 81.0145 36.9315 81.0145 59.1866Z" fill="#0088FF"/>
<path d="M58.4883 59.1867C58.4883 69.0229 50.4857 77.0234 40.6514 77.0234V71.2408C47.2973 71.2408 52.7057 65.8324 52.7057 59.1865C52.7057 52.5406 47.2973 47.1322 40.6514 47.1322V41.3496C50.4857 41.3498 58.4883 49.3502 58.4883 59.1867Z" fill="#D9D8DB"/>
<path d="M72.8078 59.1866C72.8078 76.9185 58.3811 91.3431 40.6514 91.3431V85.5604C55.193 85.5604 67.0234 73.7278 67.0234 59.1864C67.0234 44.645 55.193 32.8124 40.6514 32.8124V27.0298C58.3813 27.0298 72.8078 41.4546 72.8078 59.1866Z" fill="#D9D8DB"/>
<path d="M100.288 14.928L61.5326 53.6834L40.6533 60.0811L40.6504 60.0838L47.0551 39.2032L75.1941 11.067L85.8107 0.450439L100.288 14.928Z" fill="#FD7052"/>
<path d="M100.288 14.9278L61.5326 53.6833L40.6533 60.081L93.0471 7.68701L100.288 14.9278Z" fill="#FF4F18"/>
<path d="M61.5344 53.6833L61.5334 53.6842L46.8639 58.179L40.6537 60.0821L40.6504 60.0831L42.5564 53.8719L47.0555 39.2043L61.5344 53.6833Z" fill="#FFDBA8"/>
<path d="M61.534 53.6832L61.533 53.6841L46.8635 58.1789L40.6533 60.082L54.293 46.4421L61.534 53.6832Z" fill="#FFC473"/>
<path d="M46.8639 58.1789L40.6537 60.082L40.6504 60.083L42.5564 53.8718L46.8639 58.1789Z" fill="#57555C"/>
<path d="M90.3354 24.8795L100.286 14.9287L85.8091 0.451667L75.8583 10.4024L90.3354 24.8795Z" fill="#67BFFF"/>
<path d="M89.6696 25.545L94.001 21.2136L79.5239 6.73658L75.1925 11.068L89.6696 25.545Z" fill="white"/>
<path d="M90.3373 24.878L100.288 14.9272L93.0474 7.68651L83.0966 17.6373L90.3373 24.878Z" fill="#0088FF"/>
<path d="M44.7098 56.0254L46.8635 58.1789L40.6533 60.082L44.7098 56.0254Z" fill="#3C3A41"/>
<path d="M89.6706 25.545L94.002 21.2136L86.7612 13.9729L82.4298 18.3043L89.6706 25.545Z" fill="#D9D8DB"/>
</g>
<defs>
<clipPath id="clip0_16552_935">
<rect width="100" height="100" fill="white" transform="translate(0.288086)"/>
</clipPath>
</defs>
</svg>
