<svg width="101" height="100" viewBox="0 0 101 100" fill="none" xmlns="http://www.w3.org/2000/svg">
<g clip-path="url(#clip0_16553_1878)">
<path d="M81.0133 59.1866C81.0133 81.4436 62.9051 99.5497 40.6502 99.5497C18.3934 99.5497 0.287109 81.4434 0.287109 59.1866C0.287109 36.9315 18.3934 18.8235 40.6502 18.8235C62.9053 18.8235 81.0133 36.9315 81.0133 59.1866Z" fill="#67BFFF"/>
<path d="M40.6506 27.0298C22.9187 27.0298 8.49414 41.4546 8.49414 59.1862C8.49414 76.9179 22.9189 91.3427 40.6506 91.3427C58.3805 91.3427 72.807 76.9179 72.807 59.1862C72.807 41.4546 58.3805 27.0298 40.6506 27.0298ZM40.6506 85.5606C26.107 85.5606 14.2766 73.728 14.2766 59.1866C14.2766 44.6452 26.107 32.8126 40.6506 32.8126C55.1922 32.8126 67.0227 44.6452 67.0227 59.1866C67.0227 73.728 55.1922 85.5606 40.6506 85.5606Z" fill="white"/>
<path d="M40.6512 41.3496C30.8148 41.3496 22.8145 49.3502 22.8145 59.1863C22.8145 69.0225 30.815 77.023 40.6512 77.023C50.4855 77.023 58.4881 69.0225 58.4881 59.1863C58.4881 49.3502 50.4855 41.3496 40.6512 41.3496ZM40.6512 71.2408C34.0053 71.2408 28.5969 65.8324 28.5969 59.1865C28.5969 52.5406 34.0053 47.1322 40.6512 47.1322C47.2971 47.1322 52.7055 52.5406 52.7055 59.1865C52.7055 65.8324 47.2971 71.2408 40.6512 71.2408Z" fill="white"/>
<path d="M81.0135 59.1866C81.0135 81.4436 62.9053 99.5497 40.6504 99.5497V18.8235C62.9055 18.8235 81.0135 36.9315 81.0135 59.1866Z" fill="#0088FF"/>
<path d="M58.4873 59.1867C58.4873 69.0229 50.4848 77.0234 40.6504 77.0234V71.2408C47.2963 71.2408 52.7047 65.8324 52.7047 59.1865C52.7047 52.5406 47.2963 47.1322 40.6504 47.1322V41.3496C50.4848 41.3498 58.4873 49.3502 58.4873 59.1867Z" fill="#D9D8DB"/>
<path d="M72.8068 59.1866C72.8068 76.9185 58.3801 91.3431 40.6504 91.3431V85.5604C55.192 85.5604 67.0225 73.7278 67.0225 59.1864C67.0225 44.645 55.192 32.8124 40.6504 32.8124V27.0298C58.3803 27.0298 72.8068 41.4546 72.8068 59.1866Z" fill="#D9D8DB"/>
<path d="M100.288 14.928L61.5326 53.6834L40.6533 60.0811L40.6504 60.0838L47.0551 39.2032L75.1941 11.067L85.8107 0.450439L100.288 14.928Z" fill="#FD7052"/>
<path d="M100.287 14.9278L61.5316 53.6833L40.6523 60.081L93.0461 7.68701L100.287 14.9278Z" fill="#FF4F18"/>
<path d="M61.5324 53.6833L61.5314 53.6842L46.8619 58.179L40.6518 60.0821L40.6484 60.0831L42.5545 53.8719L47.0535 39.2043L61.5324 53.6833Z" fill="#FFDBA8"/>
<path d="M61.533 53.6832L61.532 53.6841L46.8625 58.1789L40.6523 60.082L54.292 46.4421L61.533 53.6832Z" fill="#FFC473"/>
<path d="M46.8619 58.1789L40.6518 60.082L40.6484 60.083L42.5545 53.8718L46.8619 58.1789Z" fill="#57555C"/>
<path d="M90.3344 24.8795L100.285 14.9287L85.8081 0.451667L75.8573 10.4024L90.3344 24.8795Z" fill="#67BFFF"/>
<path d="M89.6686 25.545L94 21.2136L79.523 6.73658L75.1916 11.068L89.6686 25.545Z" fill="white"/>
<path d="M90.3363 24.878L100.287 14.9272L93.0464 7.68651L83.0956 17.6373L90.3363 24.878Z" fill="#0088FF"/>
<path d="M44.7088 56.0254L46.8625 58.1789L40.6523 60.082L44.7088 56.0254Z" fill="#3C3A41"/>
<path d="M89.6706 25.545L94.002 21.2136L86.7612 13.9729L82.4298 18.3043L89.6706 25.545Z" fill="#D9D8DB"/>
</g>
<defs>
<clipPath id="clip0_16553_1878">
<rect width="100" height="100" fill="white" transform="translate(0.287109)"/>
</clipPath>
</defs>
</svg>
