<svg width="101" height="100" viewBox="0 0 101 100" fill="none" xmlns="http://www.w3.org/2000/svg">
<g clip-path="url(#clip0_16553_3754)">
<path d="M81.014 59.1866C81.014 81.4436 62.9058 99.5497 40.6509 99.5497C18.3941 99.5497 0.287842 81.4434 0.287842 59.1866C0.287842 36.9315 18.3941 18.8235 40.6509 18.8235C62.906 18.8235 81.014 36.9315 81.014 59.1866Z" fill="#67BFFF"/>
<path d="M40.6508 27.0298C22.919 27.0298 8.49438 41.4546 8.49438 59.1862C8.49438 76.9179 22.9192 91.3427 40.6508 91.3427C58.3807 91.3427 72.8073 76.9179 72.8073 59.1862C72.8073 41.4546 58.3807 27.0298 40.6508 27.0298ZM40.6508 85.5606C26.1073 85.5606 14.2768 73.728 14.2768 59.1866C14.2768 44.6452 26.1073 32.8126 40.6508 32.8126C55.1924 32.8126 67.0229 44.6452 67.0229 59.1866C67.0229 73.728 55.1924 85.5606 40.6508 85.5606Z" fill="white"/>
<path d="M40.6509 41.3496C30.8146 41.3496 22.8142 49.3502 22.8142 59.1863C22.8142 69.0225 30.8148 77.023 40.6509 77.023C50.4853 77.023 58.4878 69.0225 58.4878 59.1863C58.4878 49.3502 50.4853 41.3496 40.6509 41.3496ZM40.6509 71.2408C34.005 71.2408 28.5966 65.8324 28.5966 59.1865C28.5966 52.5406 34.005 47.1322 40.6509 47.1322C47.2968 47.1322 52.7052 52.5406 52.7052 59.1865C52.7052 65.8324 47.2968 71.2408 40.6509 71.2408Z" fill="white"/>
<path d="M81.014 59.1866C81.014 81.4436 62.9058 99.5497 40.6509 99.5497V18.8235C62.906 18.8235 81.014 36.9315 81.014 59.1866Z" fill="#0088FF"/>
<path d="M58.4878 59.1867C58.4878 69.0229 50.4853 77.0234 40.6509 77.0234V71.2408C47.2968 71.2408 52.7052 65.8324 52.7052 59.1865C52.7052 52.5406 47.2968 47.1322 40.6509 47.1322V41.3496C50.4853 41.3498 58.4878 49.3502 58.4878 59.1867Z" fill="#D9D8DB"/>
<path d="M72.8073 59.1866C72.8073 76.9185 58.3806 91.3431 40.6509 91.3431V85.5604C55.1925 85.5604 67.0229 73.7278 67.0229 59.1864C67.0229 44.645 55.1925 32.8124 40.6509 32.8124V27.0298C58.3808 27.0298 72.8073 41.4546 72.8073 59.1866Z" fill="#D9D8DB"/>
<path d="M100.288 14.928L61.5326 53.6834L40.6533 60.0811L40.6504 60.0838L47.0551 39.2032L75.1941 11.067L85.8107 0.450439L100.288 14.928Z" fill="#FD7052"/>
<path d="M100.288 14.9278L61.5326 53.6833L40.6533 60.081L93.0471 7.68701L100.288 14.9278Z" fill="#FF4F18"/>
<path d="M61.5339 53.6833L61.5329 53.6842L46.8634 58.179L40.6532 60.0821L40.6499 60.0831L42.556 53.8719L47.055 39.2043L61.5339 53.6833Z" fill="#FFDBA8"/>
<path d="M61.534 53.6832L61.533 53.6841L46.8635 58.1789L40.6533 60.082L54.293 46.4421L61.534 53.6832Z" fill="#FFC473"/>
<path d="M46.8634 58.1789L40.6532 60.082L40.6499 60.083L42.556 53.8718L46.8634 58.1789Z" fill="#57555C"/>
<path d="M90.3354 24.8795L100.286 14.9287L85.8091 0.451667L75.8583 10.4024L90.3354 24.8795Z" fill="#67BFFF"/>
<path d="M89.6698 25.545L94.0012 21.2136L79.5242 6.73658L75.1928 11.068L89.6698 25.545Z" fill="white"/>
<path d="M90.3368 24.878L100.288 14.9272L93.0469 7.68651L83.0961 17.6373L90.3368 24.878Z" fill="#0088FF"/>
<path d="M44.7098 56.0254L46.8635 58.1789L40.6533 60.082L44.7098 56.0254Z" fill="#3C3A41"/>
<path d="M89.6708 25.545L94.0022 21.2136L86.7615 13.9729L82.4301 18.3043L89.6708 25.545Z" fill="#D9D8DB"/>
</g>
<defs>
<clipPath id="clip0_16553_3754">
<rect width="100" height="100" fill="white" transform="translate(0.287842)"/>
</clipPath>
</defs>
</svg>
