<svg width="116" height="115" viewBox="0 0 116 115" fill="none" xmlns="http://www.w3.org/2000/svg">
<g clip-path="url(#clip0_16553_3072)">
<path d="M92.7135 56.7408V27.7832C84.7298 27.7832 78.2344 34.2784 78.2344 42.2621C78.2344 50.2459 84.7298 56.7408 92.7135 56.7408Z" fill="#9BC9FF"/>
<path d="M107.193 42.2621C107.193 34.2784 100.698 27.7832 92.7139 27.7832V56.7408C100.698 56.7408 107.193 50.2457 107.193 42.2621Z" fill="#57A4FF"/>
<path d="M115.288 82.7016C115.288 70.2539 105.161 60.127 92.7131 60.127C86.2524 60.127 80.2505 62.8519 76.0352 67.4867C81.9267 72.2523 85.926 79.2687 86.7103 87.2165H115.288V82.7016Z" fill="#9BC9FF"/>
<path d="M39.5407 67.4867C35.3253 62.8522 29.3234 60.127 22.8627 60.127C10.4151 60.127 0.288086 70.2539 0.288086 82.7016V87.2165H28.8653C29.6498 79.2687 33.6491 72.2523 39.5407 67.4867Z" fill="#9BC9FF"/>
<path d="M22.8627 56.7408V27.7832C14.879 27.7832 8.38379 34.2784 8.38379 42.2621C8.38379 50.2459 14.879 56.7408 22.8627 56.7408Z" fill="#9BC9FF"/>
<path d="M37.3412 42.2621C37.3412 34.2784 30.8461 27.7832 22.8623 27.7832V56.7408C30.8461 56.7408 37.3412 50.2457 37.3412 42.2621Z" fill="#57A4FF"/>
<path d="M76.0356 67.4868C71.0435 63.4486 64.6937 61.0261 57.7881 61.0261V94.6082H86.8529V90.0932C86.8529 89.1225 86.8042 88.1631 86.7107 87.2168C85.9265 79.2687 81.9272 72.2523 76.0356 67.4868Z" fill="#003F8A"/>
<path d="M75.8478 38.4516C75.8478 28.4939 67.7458 20.3918 57.7881 20.3918V56.5113C67.7458 56.5113 75.8478 48.4115 75.8478 38.4516Z" fill="#003F8A"/>
<path d="M39.5402 67.4867C33.6487 72.2523 29.6493 79.2687 28.8649 87.2165C28.7714 88.1631 28.7227 89.1225 28.7227 90.093V94.6079H57.7875V61.0259C50.8822 61.0261 44.5324 63.4486 39.5402 67.4867Z" fill="#005ECE"/>
<path d="M57.7882 56.5113V20.3918C47.8306 20.3918 39.7285 28.4939 39.7285 38.4516C39.7285 48.4115 47.8306 56.5113 57.7882 56.5113Z" fill="#005ECE"/>
</g>
<defs>
<clipPath id="clip0_16553_3072">
<rect width="115" height="115" fill="white" transform="translate(0.288086)"/>
</clipPath>
</defs>
</svg>
