<svg width="18" height="18" viewBox="0 0 18 18" fill="none" xmlns="http://www.w3.org/2000/svg">
<path d="M5 13.3944L7.13765 12L8.9946 13.2113L10.8623 12L13 13.3944L8.9946 16L5 13.3944Z" fill="#5A6689"/>
<path d="M10.887 1.36083C10.7058 1.29715 10.5352 1.23348 10.3646 1.19103C10.3225 1.18147 10.2788 1.18147 10.2367 1.19103C9.84192 1.0739 9.4332 1.00966 9.02136 1C7.69047 1.0028 6.41491 1.53033 5.47383 2.46713C4.53276 3.40392 4.00282 4.67369 4 5.99851C4.00038 6.40982 4.05049 6.81958 4.14925 7.21896C4.14925 7.21896 4.14925 7.30386 4.14925 7.35692C4.19647 7.52977 4.25342 7.69984 4.31983 7.86632C4.62968 8.63338 5.12582 9.31195 5.76381 9.84125C6.4018 10.3706 7.16172 10.7341 7.9755 10.8992C8.78928 11.0644 9.63151 11.0261 10.4267 10.7876C11.222 10.5492 11.9454 10.1182 12.5322 9.53308C13.119 8.94801 13.5508 8.22719 13.789 7.43518C14.0272 6.64318 14.0644 5.80472 13.8971 4.99491C13.7299 4.18511 13.3635 3.42924 12.8307 2.79501C12.2979 2.16079 11.6155 1.66801 10.8444 1.36083H10.887ZM9.02136 8.30144L7.74203 7.01732L6.67592 5.95606L9.02136 3.71681L9.8849 4.56582L10.0448 4.7144L10.7271 5.3936L11.3348 5.9879L9.02136 8.30144Z" fill="#5A6689"/>
</svg>
