<svg width="116" height="115" viewBox="0 0 116 115" fill="none" xmlns="http://www.w3.org/2000/svg">
<g clip-path="url(#clip0_16553_1862)">
<path d="M92.7116 56.7408V27.7832C84.7278 27.7832 78.2324 34.2784 78.2324 42.2621C78.2324 50.2459 84.7278 56.7408 92.7116 56.7408Z" fill="#9BC9FF"/>
<path d="M107.192 42.2621C107.192 34.2784 100.697 27.7832 92.7129 27.7832V56.7408C100.697 56.7408 107.192 50.2457 107.192 42.2621Z" fill="#57A4FF"/>
<path d="M115.288 82.7016C115.288 70.2539 105.161 60.127 92.7131 60.127C86.2524 60.127 80.2505 62.8519 76.0352 67.4867C81.9267 72.2523 85.926 79.2687 86.7103 87.2165H115.288V82.7016Z" fill="#9BC9FF"/>
<path d="M39.5397 67.4867C35.3243 62.8522 29.3224 60.127 22.8618 60.127C10.4141 60.127 0.287109 70.2539 0.287109 82.7016V87.2165H28.8644C29.6488 79.2687 33.6481 72.2523 39.5397 67.4867Z" fill="#9BC9FF"/>
<path d="M22.8617 56.7408V27.7832C14.878 27.7832 8.38281 34.2784 8.38281 42.2621C8.38281 50.2459 14.878 56.7408 22.8617 56.7408Z" fill="#9BC9FF"/>
<path d="M37.3403 42.2621C37.3403 34.2784 30.8451 27.7832 22.8613 27.7832V56.7408C30.8451 56.7408 37.3403 50.2457 37.3403 42.2621Z" fill="#57A4FF"/>
<path d="M76.0346 67.4868C71.0425 63.4486 64.6927 61.0261 57.7871 61.0261V94.6082H86.852V90.0932C86.852 89.1225 86.8032 88.1631 86.7097 87.2168C85.9255 79.2687 81.9262 72.2523 76.0346 67.4868Z" fill="#003F8A"/>
<path d="M75.8468 38.4516C75.8468 28.4939 67.7448 20.3918 57.7871 20.3918V56.5113C67.7448 56.5113 75.8468 48.4115 75.8468 38.4516Z" fill="#003F8A"/>
<path d="M39.5402 67.4867C33.6487 72.2523 29.6493 79.2687 28.8649 87.2165C28.7714 88.1631 28.7227 89.1225 28.7227 90.093V94.6079H57.7875V61.0259C50.8822 61.0261 44.5324 63.4486 39.5402 67.4867Z" fill="#005ECE"/>
<path d="M57.7863 56.5113V20.3918C47.8286 20.3918 39.7266 28.4939 39.7266 38.4516C39.7266 48.4115 47.8286 56.5113 57.7863 56.5113Z" fill="#005ECE"/>
</g>
<defs>
<clipPath id="clip0_16553_1862">
<rect width="115" height="115" fill="white" transform="translate(0.287109)"/>
</clipPath>
</defs>
</svg>
