<svg width="116" height="115" viewBox="0 0 116 115" fill="none" xmlns="http://www.w3.org/2000/svg">
<g clip-path="url(#clip0_16553_3738)">
<path d="M92.7132 56.7408V27.7832C84.7294 27.7832 78.234 34.2784 78.234 42.2621C78.234 50.2459 84.7294 56.7408 92.7132 56.7408Z" fill="#9BC9FF"/>
<path d="M107.192 42.2621C107.192 34.2784 100.697 27.7832 92.7131 27.7832V56.7408C100.697 56.7408 107.192 50.2457 107.192 42.2621Z" fill="#57A4FF"/>
<path d="M115.288 82.7016C115.288 70.2539 105.161 60.127 92.7132 60.127C86.2526 60.127 80.2506 62.8519 76.0353 67.4867C81.9268 72.2523 85.9261 79.2687 86.7104 87.2165H115.288V82.7016Z" fill="#9BC9FF"/>
<path d="M39.5404 67.4867C35.325 62.8522 29.3231 60.127 22.8625 60.127C10.4148 60.127 0.287842 70.2539 0.287842 82.7016V87.2165H28.8651C29.6496 79.2687 33.6489 72.2523 39.5404 67.4867Z" fill="#9BC9FF"/>
<path d="M22.8625 56.7408V27.7832C14.8787 27.7832 8.38354 34.2784 8.38354 42.2621C8.38354 50.2459 14.8787 56.7408 22.8625 56.7408Z" fill="#9BC9FF"/>
<path d="M37.3415 42.2621C37.3415 34.2784 30.8463 27.7832 22.8625 27.7832V56.7408C30.8463 56.7408 37.3415 50.2457 37.3415 42.2621Z" fill="#57A4FF"/>
<path d="M76.0353 67.4868C71.0431 63.4486 64.6933 61.0261 57.7877 61.0261V94.6082H86.8526V90.0932C86.8526 89.1225 86.8038 88.1631 86.7104 87.2168C85.9261 79.2687 81.9268 72.2523 76.0353 67.4868Z" fill="#003F8A"/>
<path d="M75.8474 38.4516C75.8474 28.4939 67.7454 20.3918 57.7877 20.3918V56.5113C67.7454 56.5113 75.8474 48.4115 75.8474 38.4516Z" fill="#003F8A"/>
<path d="M39.5404 67.4867C33.6489 72.2523 29.6496 79.2687 28.8651 87.2165C28.7717 88.1631 28.7229 89.1225 28.7229 90.093V94.6079H57.7878V61.0259C50.8824 61.0261 44.5326 63.4486 39.5404 67.4867Z" fill="#005ECE"/>
<path d="M57.7877 56.5113V20.3918C47.8301 20.3918 39.728 28.4939 39.728 38.4516C39.728 48.4115 47.8301 56.5113 57.7877 56.5113Z" fill="#005ECE"/>
</g>
<defs>
<clipPath id="clip0_16553_3738">
<rect width="115" height="115" fill="white" transform="translate(0.287842)"/>
</clipPath>
</defs>
</svg>
