<svg width="18" height="18" viewBox="0 0 18 18" fill="none" xmlns="http://www.w3.org/2000/svg">
<path d="M9.66797 7.61705C9.26551 7.57247 8.89363 7.38101 8.62353 7.07934C8.35342 6.77767 8.20408 6.38697 8.20408 5.98205C8.20408 5.57712 8.35342 5.18643 8.62353 4.88475C8.89363 4.58308 9.26551 4.39163 9.66797 4.34705V5.14705C9.44386 5.14705 9.22893 5.23607 9.07046 5.39454C8.91199 5.55301 8.82297 5.76794 8.82297 5.99205C8.82297 6.21615 8.91199 6.43108 9.07046 6.58955C9.22893 6.74802 9.44386 6.83705 9.66797 6.83705V7.61705ZM14.668 16.847H4.66797C4.53536 16.847 4.40818 16.8997 4.31442 16.9935C4.22065 17.0873 4.16797 17.2144 4.16797 17.347C4.16797 17.4797 4.22065 17.6068 4.31442 17.7006C4.40818 17.7944 4.53536 17.847 4.66797 17.847H14.668C14.8006 17.847 14.9278 17.7944 15.0215 17.7006C15.1153 17.6068 15.168 17.4797 15.168 17.347C15.168 17.2144 15.1153 17.0873 15.0215 16.9935C14.9278 16.8997 14.8006 16.847 14.668 16.847Z" fill="#5A6689"/>
<path d="M8.9707 5.28003V6.97003C9.19481 6.97003 9.40974 6.881 9.56821 6.72253C9.72668 6.56407 9.8157 6.34914 9.8157 6.12503C9.8157 5.90092 9.72668 5.68599 9.56821 5.52752C9.40974 5.36906 9.19481 5.28003 8.9707 5.28003Z" fill="#5A6689"/>
<path d="M15.0429 11.072C14.7596 10.065 14.2748 9.12609 13.6179 8.31199L13.4279 8.07699V7.62199C13.0629 2.02699 10.0179 0.146987 9.88794 0.0669873C9.81193 0.0231031 9.72571 0 9.63794 0C9.55017 0 9.46395 0.0231031 9.38794 0.0669873C9.25794 0.146987 6.21294 2.02699 5.88794 7.61699C5.88794 7.79699 5.88794 7.98199 5.86294 8.16699L5.74794 8.31199C4.47378 9.87914 3.85719 11.8794 4.02794 13.892C4.0392 14.0166 4.09682 14.1326 4.18939 14.2168C4.28197 14.301 4.40277 14.3475 4.52794 14.347H6.69794C6.82803 14.7774 6.99533 15.1956 7.19794 15.597C7.24478 15.6787 7.31375 15.7455 7.3969 15.7897C7.48005 15.834 7.57401 15.8538 7.66794 15.847H11.6279C11.7165 15.8468 11.8035 15.8231 11.8799 15.7783C11.9564 15.7335 12.0195 15.6692 12.0629 15.592C12.2665 15.191 12.4338 14.7727 12.5629 14.342H14.8079C14.9331 14.3425 15.0539 14.296 15.1465 14.2118C15.2391 14.1276 15.2967 14.0116 15.3079 13.887C15.3924 12.9403 15.3026 11.9862 15.0429 11.072ZM9.63794 7.61699V14.847H7.95794C7.60021 14.0084 7.3353 13.1332 7.16794 12.237L6.16794 12.437C6.23294 12.762 6.30294 13.062 6.37794 13.347H4.99794C4.96652 12.1473 5.26207 10.9616 5.85294 9.91699C5.85294 10.167 5.89294 10.417 5.91794 10.672L6.91794 10.567C6.81259 9.60895 6.79418 8.64334 6.86294 7.68199C7.11794 3.52199 8.94794 1.68199 9.63794 1.11199V4.34699C10.0742 4.34699 10.4926 4.5203 10.8011 4.8288C11.1096 5.13729 11.2829 5.55571 11.2829 5.99199C11.2829 6.42827 11.1096 6.84668 10.8011 7.15518C10.4926 7.46368 10.0742 7.63699 9.63794 7.63699V7.61699ZM12.8629 13.347C13.1654 12.185 13.3513 10.9958 13.4179 9.79699C14.0503 10.8711 14.369 12.1009 14.3379 13.347H12.8629Z" fill="#5A6689"/>
</svg>
