<svg width="116" height="115" viewBox="0 0 116 115" fill="none" xmlns="http://www.w3.org/2000/svg">
<g clip-path="url(#clip0_16553_372)">
<path d="M92.7135 56.7413V27.7837C84.7298 27.7837 78.2344 34.2789 78.2344 42.2626C78.2344 50.2464 84.7298 56.7413 92.7135 56.7413Z" fill="#9BC9FF"/>
<path d="M107.193 42.2626C107.193 34.2789 100.697 27.7837 92.7134 27.7837V56.7413C100.697 56.7413 107.193 50.2461 107.193 42.2626Z" fill="#57A4FF"/>
<path d="M115.288 82.7021C115.288 70.2544 105.161 60.1274 92.7136 60.1274C86.2529 60.1274 80.251 62.8524 76.0356 67.4872C81.9272 72.2527 85.9265 79.2692 86.7107 87.217H115.288V82.7021Z" fill="#9BC9FF"/>
<path d="M39.5407 67.4872C35.3253 62.8527 29.3234 60.1274 22.8627 60.1274C10.4151 60.1274 0.288086 70.2544 0.288086 82.7021V87.217H28.8653C29.6498 79.2692 33.6491 72.2527 39.5407 67.4872Z" fill="#9BC9FF"/>
<path d="M22.8627 56.7413V27.7837C14.879 27.7837 8.38379 34.2789 8.38379 42.2626C8.38379 50.2464 14.879 56.7413 22.8627 56.7413Z" fill="#9BC9FF"/>
<path d="M37.3417 42.2626C37.3417 34.2789 30.8465 27.7837 22.8628 27.7837V56.7413C30.8465 56.7413 37.3417 50.2461 37.3417 42.2626Z" fill="#57A4FF"/>
<path d="M76.0356 67.487C71.0435 63.4489 64.6937 61.0264 57.7881 61.0264V94.6084H86.8529V90.0935C86.8529 89.1228 86.8042 88.1634 86.7107 87.217C85.9265 79.2689 81.9272 72.2525 76.0356 67.487Z" fill="#003F8A"/>
<path d="M75.8478 38.4518C75.8478 28.4941 67.7458 20.3921 57.7881 20.3921V56.5115C67.7458 56.5115 75.8478 48.4117 75.8478 38.4518Z" fill="#003F8A"/>
<path d="M39.5407 67.4872C33.6492 72.2527 29.6498 79.2692 28.8654 87.217C28.7719 88.1636 28.7231 89.123 28.7231 90.0935V94.6084H57.788V61.0264C50.8826 61.0266 44.5328 63.4491 39.5407 67.4872Z" fill="#005ECE"/>
<path d="M57.7877 56.5115V20.3921C47.8301 20.3921 39.728 28.4941 39.728 38.4518C39.728 48.4117 47.8301 56.5115 57.7877 56.5115Z" fill="#005ECE"/>
</g>
<defs>
<clipPath id="clip0_16553_372">
<rect width="115" height="115" fill="white" transform="translate(0.288086)"/>
</clipPath>
</defs>
</svg>
