<svg width="304" height="33" viewBox="0 0 304 33" fill="none" xmlns="http://www.w3.org/2000/svg">
<path d="M15.5951 8.98637C15.5951 8.98637 14.8374 9.6849 14.8244 11.7297V13.8676H12.0796V16.8903H14.8244V24.7011H17.9892V16.8903H20.7124L21.0934 13.8676H17.9892V11.7297C17.9979 11.4926 18.1061 10.4385 19.379 10.4596H21.2319V7.61049H18.4568C18.4568 7.61049 16.712 7.56815 15.5994 8.98214L15.5951 8.98637Z" fill="black"/>
<path d="M28.1416 26.1829C27.687 26.3142 27.4359 26.8095 27.2194 27.1905C27.0246 27.5377 26.6479 27.9441 26.6479 28.3505C26.6479 28.4817 26.7865 28.5876 26.9164 28.5495C27.319 28.4394 27.6177 27.9779 27.9078 27.7028C28.2282 27.398 28.6568 27.0254 28.6654 26.5682C28.6654 26.31 28.397 26.1067 28.1373 26.1787L28.1416 26.1829Z" fill="black"/>
<path d="M32.9992 17.2884C34.9647 9.52418 26.7605 1.67105 19.2966 0.290933C15.1924 -0.466862 10.9236 0.252831 7.42542 2.48388C4.42082 4.39742 1.34694 7.79692 0.965956 11.3954C0.957298 11.4758 0.983273 11.5393 1.01791 11.5944C-1.35027 17.5339 1.23005 25.0018 6.421 28.7739C11.5687 32.512 20.0326 33.8202 25.5093 29.9169C25.9726 29.5867 25.5872 28.9305 25.0591 29.1718C24.8599 29.2607 24.6607 29.3496 24.4659 29.4385C24.3663 29.2692 24.1585 29.1591 23.8988 29.2819C20.2534 30.9711 15.1924 30.1159 11.5903 28.8628C11.1833 28.7231 10.9063 29.3539 11.2959 29.5401C13.2138 30.4503 15.3006 30.9838 17.4393 31.0938C18.3312 31.1404 19.2274 31.1065 20.1192 31.0176C18.7598 31.3521 17.3571 31.5045 15.8461 31.3732C12.7766 31.1023 10.0663 29.9846 7.52932 28.3251C4.55503 26.3819 2.52454 24.0154 1.56341 20.6286C0.72784 17.6948 0.684545 14.6044 1.60671 11.7002C1.64567 11.6706 1.68464 11.6367 1.70628 11.5901C1.86647 11.2938 2.02233 11.0017 2.17819 10.7138C1.26468 13.0126 0.996262 15.5611 1.40755 17.9912C2.18252 22.6014 4.84077 25.6453 8.75021 28.1473C9.21779 28.4479 9.68969 27.6774 9.19181 27.4192C5.71963 25.6199 2.96614 21.5261 2.38167 17.7837C1.73659 13.6518 3.27352 9.77396 5.7889 6.48453C6.00537 6.20512 5.55079 5.89608 5.30401 6.12045C4.89272 6.49723 4.51173 6.90365 4.15672 7.33123C4.73253 6.48453 5.37761 5.68864 6.15257 4.94777C5.97507 5.23989 6.26081 5.68017 6.61582 5.45579C7.52932 4.88427 8.41252 4.27465 9.36066 3.7497C10.036 3.37715 10.7547 3.0808 11.4474 2.73789C11.56 2.77176 11.6899 2.78023 11.8414 2.74212C16.8722 1.49324 21.8813 2.0309 25.7994 5.62513C25.9509 5.76484 26.1371 5.70134 26.2323 5.57433C26.1977 5.75214 26.2973 5.96381 26.5397 5.96381C26.964 5.96381 26.964 5.32456 26.5397 5.32456C26.4185 5.32456 26.3362 5.37536 26.2843 5.45156C26.2929 5.37959 26.2713 5.30339 26.2063 5.23142C24.8989 3.88093 23.2494 2.75483 21.4353 1.9674C26.7345 3.864 31.1419 8.50391 31.7783 13.8593C31.3843 12.1489 30.6526 10.4937 29.5833 8.99923C29.3105 8.62245 28.7087 8.94843 28.9382 9.36331C30.3626 11.9119 31.0336 14.6975 31.1289 17.5848C31.2284 20.599 30.0292 23.173 28.3884 25.658C28.2195 25.912 28.6092 26.2211 28.8213 26.0094C28.9209 26.0602 29.0421 26.0602 29.146 25.9671C31.5142 23.808 33.2459 20.5736 33.0122 17.335C33.0122 17.318 33.0035 17.3011 32.9992 17.2842V17.2884Z" fill="black"/>
<path d="M9.99291 28.5284C9.88901 28.7654 10.0275 29.0025 10.27 29.083C10.4475 29.1422 10.6077 29.2015 10.7939 29.2269C11.1142 29.265 11.2355 28.8374 11.0406 28.6469C10.9151 28.5199 10.7462 28.431 10.5947 28.3336C10.3826 28.1939 10.0838 28.3167 9.98859 28.5326L9.99291 28.5284Z" fill="black"/>
<path d="M294.75 9.8078C294.088 10.1888 293.356 10.4725 292.577 10.6206C291.949 9.96867 291.061 9.56226 290.079 9.56226C288.187 9.56226 286.654 11.0609 286.654 12.9109C286.654 13.1734 286.684 13.4274 286.741 13.6772C283.896 13.5375 281.372 12.204 279.684 10.1803C279.389 10.6757 279.22 11.2472 279.22 11.861C279.22 13.021 279.822 14.0455 280.744 14.6467C280.182 14.6297 279.653 14.4773 279.194 14.2276C279.194 14.2445 279.194 14.2572 279.194 14.2699C279.194 15.8913 280.376 17.246 281.939 17.5509C281.654 17.6271 281.351 17.6694 281.039 17.6694C280.818 17.6694 280.606 17.6482 280.394 17.6059C280.831 18.9394 282.095 19.9047 283.593 19.9343C282.42 20.8318 280.944 21.3695 279.342 21.3695C279.065 21.3695 278.796 21.3525 278.523 21.3229C280.039 22.2754 281.835 22.8258 283.771 22.8258C290.07 22.8258 293.512 17.7244 293.512 13.3004C293.512 13.1565 293.512 13.0126 293.503 12.8686C294.174 12.3945 294.754 11.806 295.209 11.1371C294.594 11.4038 293.936 11.5816 293.243 11.6621C293.949 11.2472 294.49 10.591 294.75 9.81203V9.8078Z" fill="black"/>
<path d="M298.296 26.1829C297.841 26.3142 297.59 26.8095 297.374 27.1905C297.179 27.5377 296.802 27.9441 296.802 28.3505C296.802 28.4817 296.941 28.5876 297.071 28.5495C297.473 28.4394 297.772 27.9779 298.062 27.7028C298.382 27.398 298.811 27.0254 298.82 26.5682C298.82 26.31 298.551 26.1067 298.292 26.1787L298.296 26.1829Z" fill="black"/>
<path d="M303.153 17.2884C305.119 9.52418 296.915 1.67105 289.451 0.290933C285.347 -0.466862 281.078 0.252831 277.58 2.48388C274.575 4.39742 271.501 7.79692 271.12 11.3954C271.112 11.4758 271.138 11.5393 271.172 11.5944C268.804 17.5339 271.384 25.0018 276.575 28.7739C281.723 32.512 290.187 33.8202 295.659 29.9169C296.123 29.5867 295.737 28.9305 295.209 29.1718C295.01 29.2607 294.811 29.3496 294.616 29.4385C294.516 29.2692 294.309 29.1591 294.053 29.2819C290.408 30.9711 285.347 30.1159 281.745 28.8628C281.338 28.7231 281.061 29.3539 281.45 29.5401C283.368 30.4503 285.455 30.9838 287.594 31.0938C288.485 31.1404 289.382 31.1065 290.274 31.0176C288.914 31.3521 287.511 31.5045 286 31.3732C282.931 31.1023 280.221 29.9846 277.684 28.3251C274.709 26.3819 272.679 24.0154 271.718 20.6286C270.882 17.6948 270.839 14.6044 271.761 11.7002C271.8 11.6706 271.839 11.6367 271.861 11.5901C272.021 11.2938 272.177 11.0017 272.332 10.7138C271.419 13.0126 271.151 15.5611 271.562 17.9912C272.337 22.6014 274.995 25.6453 278.905 28.1473C279.372 28.4479 279.844 27.6774 279.346 27.4192C275.874 25.6199 273.12 21.5261 272.536 17.7837C271.891 13.6518 273.428 9.77396 275.943 6.48453C276.16 6.20512 275.705 5.89608 275.458 6.12045C275.047 6.49723 274.666 6.90365 274.311 7.33123C274.887 6.48453 275.532 5.68864 276.307 4.94777C276.129 5.23989 276.415 5.68017 276.77 5.45579C277.684 4.88427 278.567 4.27465 279.515 3.7497C280.19 3.37715 280.909 3.0808 281.602 2.73789C281.714 2.77176 281.844 2.78023 281.996 2.74212C287.026 1.49324 292.036 2.0309 295.954 5.62513C296.105 5.76484 296.291 5.70134 296.387 5.57433C296.352 5.75214 296.452 5.96381 296.694 5.96381C297.118 5.96381 297.118 5.32456 296.694 5.32456C296.573 5.32456 296.491 5.37536 296.439 5.45156C296.447 5.37959 296.426 5.30339 296.361 5.23142C295.053 3.88093 293.404 2.75483 291.59 1.9674C296.889 3.864 301.296 8.50391 301.933 13.8593C301.539 12.1489 300.807 10.4937 299.738 8.99923C299.465 8.62245 298.863 8.94843 299.092 9.36331C300.517 11.9119 301.188 14.6975 301.283 17.5848C301.383 20.599 300.183 23.173 298.543 25.658C298.374 25.912 298.763 26.2211 298.976 26.0094C299.075 26.0602 299.196 26.0602 299.3 25.9671C301.668 23.808 303.4 20.5736 303.166 17.335C303.166 17.318 303.158 17.3011 303.153 17.2842V17.2884Z" fill="black"/>
<path d="M280.147 28.5284C280.043 28.7654 280.182 29.0025 280.424 29.083C280.602 29.1422 280.762 29.2015 280.948 29.2269C281.269 29.265 281.39 28.8374 281.195 28.6469C281.069 28.5199 280.901 28.431 280.749 28.3336C280.537 28.1939 280.238 28.3167 280.143 28.5326L280.147 28.5284Z" fill="black"/>
<path d="M222.847 7.6106H216.141C213.167 7.6106 210.76 9.96865 210.76 12.8728V19.4305C210.76 22.3389 213.171 24.6927 216.141 24.6927H222.847C225.822 24.6927 228.229 22.3347 228.229 19.4305V12.8728C228.229 9.96442 225.817 7.6106 222.847 7.6106V7.6106ZM226.553 18.7997C226.553 21.1493 224.605 23.0544 222.202 23.0544H216.782C214.379 23.0544 212.431 21.1493 212.431 18.7997V13.4994C212.431 11.1498 214.379 9.24472 216.782 9.24472H222.202C224.605 9.24472 226.553 11.1498 226.553 13.4994V18.7997Z" fill="black"/>
<path d="M219.731 11.6831C217.189 11.6831 215.128 13.6982 215.128 16.1833C215.128 18.6684 217.189 20.6835 219.731 20.6835C222.272 20.6835 224.333 18.6684 224.333 16.1833C224.333 13.6982 222.272 11.6831 219.731 11.6831ZM219.731 18.8885C218.202 18.8885 216.96 17.6777 216.96 16.1833C216.96 14.6889 218.198 13.4739 219.731 13.4739C221.263 13.4739 222.497 14.6847 222.497 16.1833C222.497 17.682 221.259 18.8885 219.731 18.8885Z" fill="black"/>
<path d="M224.012 10.4683C223.367 10.4683 222.843 10.9805 222.843 11.6113C222.843 12.2421 223.367 12.7543 224.012 12.7543C224.657 12.7543 225.181 12.2421 225.181 11.6113C225.181 10.9805 224.657 10.4683 224.012 10.4683Z" fill="black"/>
<path d="M230.762 26.1829C230.307 26.3142 230.056 26.8095 229.84 27.1905C229.645 27.5377 229.268 27.9441 229.268 28.3505C229.268 28.4817 229.407 28.5876 229.536 28.5495C229.939 28.4394 230.238 27.9779 230.528 27.7028C230.848 27.398 231.277 27.0254 231.286 26.5682C231.286 26.31 231.017 26.1067 230.757 26.1787L230.762 26.1829Z" fill="black"/>
<path d="M235.615 17.2884C237.58 9.52418 229.376 1.67105 221.912 0.290933C217.808 -0.466862 213.539 0.252831 210.041 2.48388C207.037 4.39742 203.963 7.79692 203.582 11.3954C203.573 11.4758 203.599 11.5393 203.634 11.5944C201.265 17.5339 203.846 25.0018 209.037 28.7739C214.184 32.512 222.648 33.8202 228.121 29.9169C228.584 29.5867 228.199 28.9305 227.67 29.1718C227.471 29.2607 227.272 29.3496 227.077 29.4385C226.978 29.2692 226.77 29.1591 226.51 29.2819C222.865 30.9711 217.804 30.1159 214.202 28.8628C213.795 28.7231 213.518 29.3539 213.907 29.5401C215.825 30.4503 217.912 30.9838 220.051 31.0938C220.943 31.1404 221.839 31.1065 222.731 31.0176C221.371 31.3521 219.968 31.5045 218.457 31.3732C215.388 31.1023 212.678 29.9846 210.141 28.3251C207.166 26.3819 205.136 24.0154 204.175 20.6286C203.339 17.6948 203.296 14.6044 204.218 11.7002C204.257 11.6706 204.296 11.6367 204.318 11.5901C204.478 11.2938 204.634 11.0017 204.79 10.7138C203.876 13.0126 203.608 15.5611 204.019 17.9912C204.794 22.6014 207.452 25.6453 211.362 28.1473C211.829 28.4479 212.301 27.6774 211.803 27.4192C208.331 25.6199 205.578 21.5261 204.993 17.7837C204.348 13.6518 205.885 9.77396 208.4 6.48453C208.617 6.20512 208.162 5.89608 207.915 6.12045C207.504 6.49723 207.123 6.90365 206.768 7.33123C207.344 6.48453 207.989 5.68864 208.764 4.94777C208.586 5.23989 208.872 5.68017 209.227 5.45579C210.141 4.88427 211.024 4.27465 211.972 3.7497C212.647 3.37715 213.366 3.0808 214.059 2.73789C214.171 2.77176 214.301 2.78023 214.453 2.74212C219.484 1.49324 224.493 2.0309 228.411 5.62513C228.562 5.76484 228.748 5.70134 228.844 5.57433C228.809 5.75214 228.909 5.96381 229.151 5.96381C229.575 5.96381 229.575 5.32456 229.151 5.32456C229.03 5.32456 228.948 5.37536 228.896 5.45156C228.904 5.37959 228.887 5.30339 228.818 5.23142C227.51 3.88093 225.861 2.75483 224.047 1.9674C229.346 3.864 233.753 8.50391 234.39 13.8593C233.996 12.1489 233.264 10.4937 232.195 8.99923C231.922 8.62245 231.32 8.94843 231.55 9.36331C232.974 11.9119 233.645 14.6975 233.74 17.5848C233.84 20.599 232.641 23.173 231 25.658C230.831 25.912 231.221 26.2211 231.433 26.0094C231.532 26.0602 231.653 26.0602 231.757 25.9671C234.126 23.808 235.857 20.5736 235.624 17.335C235.624 17.318 235.615 17.3011 235.611 17.2842L235.615 17.2884Z" fill="black"/>
<path d="M212.613 28.5284C212.509 28.7654 212.647 29.0025 212.89 29.083C213.067 29.1422 213.227 29.2015 213.413 29.2269C213.734 29.265 213.855 28.8374 213.66 28.6469C213.535 28.5199 213.366 28.431 213.214 28.3336C213.002 28.1939 212.703 28.3167 212.608 28.5326L212.613 28.5284Z" fill="black"/>
<path d="M144.867 23.2068H148.192V12.7416H144.867V23.2068ZM146.529 7.53866C145.464 7.53866 144.603 8.38535 144.603 9.42679C144.603 10.6291 145.75 11.5647 147.036 11.2472C147.685 11.0863 148.218 10.5698 148.391 9.93481C148.728 8.67323 147.763 7.53442 146.533 7.53442L146.529 7.53866ZM156.66 12.4834C155.041 12.4834 153.958 13.3512 153.512 14.1725H153.465V12.7416H150.274V23.2068H153.599V18.0293C153.599 16.6661 153.863 15.341 155.595 15.341C157.327 15.341 157.322 16.9031 157.322 18.1182V23.2068H160.647V17.4662C160.647 14.6509 160.024 12.4834 156.656 12.4834H156.66Z" fill="black"/>
<path d="M163.223 26.1829C162.769 26.3142 162.517 26.8095 162.301 27.1905C162.106 27.5377 161.729 27.9441 161.729 28.3505C161.729 28.4817 161.868 28.5876 161.998 28.5495C162.401 28.4394 162.699 27.9779 162.989 27.7028C163.31 27.398 163.738 27.0254 163.747 26.5682C163.747 26.31 163.479 26.1067 163.219 26.1787L163.223 26.1829Z" fill="black"/>
<path d="M168.076 17.2884C170.042 9.52418 161.838 1.67105 154.374 0.290933C150.27 -0.466862 146.001 0.252831 142.503 2.48388C139.498 4.39742 136.424 7.79692 136.043 11.3954C136.034 11.4758 136.06 11.5393 136.095 11.5944C133.727 17.5339 136.307 25.0018 141.498 28.7739C146.646 32.512 155.11 33.8202 160.582 29.9169C161.045 29.5867 160.66 28.9305 160.132 29.1718C159.933 29.2607 159.734 29.3496 159.539 29.4385C159.439 29.2692 159.231 29.1591 158.972 29.2819C155.326 30.9711 150.265 30.1159 146.663 28.8628C146.256 28.7231 145.979 29.3539 146.369 29.5401C148.287 30.4503 150.373 30.9838 152.512 31.0938C153.404 31.1404 154.3 31.1065 155.192 31.0176C153.833 31.3521 152.43 31.5045 150.919 31.3732C147.849 31.1023 145.139 29.9846 142.602 28.3251C139.628 26.3819 137.597 24.0154 136.636 20.6286C135.801 17.6948 135.757 14.6044 136.68 11.7002C136.718 11.6706 136.757 11.6367 136.779 11.5901C136.939 11.2938 137.095 11.0017 137.251 10.7138C136.338 13.0126 136.069 15.5611 136.48 17.9912C137.255 22.6014 139.914 25.6453 143.823 28.1473C144.291 28.4479 144.763 27.6774 144.265 27.4192C140.792 25.6199 138.039 21.5261 137.454 17.7837C136.809 13.6518 138.346 9.77396 140.862 6.48453C141.078 6.20512 140.624 5.89608 140.377 6.12045C139.966 6.49723 139.585 6.90365 139.23 7.33123C139.805 6.48453 140.45 5.68864 141.225 4.94777C141.048 5.23989 141.334 5.68017 141.689 5.45579C142.602 4.88427 143.485 4.27465 144.433 3.7497C145.109 3.37715 145.828 3.0808 146.52 2.73789C146.633 2.77176 146.763 2.78023 146.914 2.74212C151.945 1.49324 156.954 2.0309 160.872 5.62513C161.024 5.76484 161.21 5.70134 161.305 5.57433C161.271 5.75214 161.37 5.96381 161.613 5.96381C162.037 5.96381 162.037 5.32456 161.613 5.32456C161.491 5.32456 161.409 5.37536 161.357 5.45156C161.366 5.37959 161.344 5.30339 161.279 5.23142C159.972 3.88093 158.322 2.75483 156.508 1.9674C161.807 3.864 166.215 8.50391 166.851 13.8593C166.457 12.1489 165.725 10.4937 164.656 8.99923C164.383 8.62245 163.782 8.94843 164.011 9.36331C165.435 11.9119 166.106 14.6975 166.202 17.5848C166.301 20.599 165.102 23.173 163.461 25.658C163.292 25.912 163.682 26.2211 163.894 26.0094C163.994 26.0602 164.115 26.0602 164.219 25.9671C166.587 23.808 168.319 20.5736 168.085 17.335C168.085 17.318 168.076 17.3011 168.072 17.2842L168.076 17.2884Z" fill="black"/>
<path d="M145.074 28.5284C144.971 28.7654 145.109 29.0025 145.352 29.083C145.529 29.1422 145.689 29.2015 145.875 29.2269C146.196 29.265 146.317 28.8374 146.122 28.6469C145.997 28.5199 145.828 28.431 145.676 28.3336C145.464 28.1939 145.165 28.3167 145.07 28.5326L145.074 28.5284Z" fill="black"/>
<path d="M91.8398 9.39287C91.7143 9.39287 91.58 9.4225 91.4458 9.48177L76.7952 15.0065C75.7951 15.4044 75.8081 15.9463 76.6177 16.1834L80.3799 17.3349H80.4015L81.6874 21.488C81.8649 21.9452 81.774 22.1314 82.2718 22.1314C82.6528 22.1314 82.8174 21.9579 83.0338 21.7589C83.168 21.6319 83.9473 20.891 84.8262 20.057L84.8478 20.0359L88.6274 22.7622C88.8915 22.9019 89.1253 22.9612 89.3288 22.94C89.6751 22.9146 89.9262 22.6522 90.0431 22.1314L92.5412 10.6333C92.749 9.81621 92.355 9.36747 91.8398 9.39287V9.39287Z" fill="black"/>
<path d="M95.6846 26.1786C95.23 26.3098 94.9789 26.8051 94.7624 27.1861C94.5676 27.5333 94.1909 27.9397 94.1909 28.3461C94.1909 28.4773 94.3295 28.5832 94.4593 28.5451C94.862 28.435 95.1607 27.9736 95.4508 27.6984C95.7711 27.3936 96.1998 27.021 96.2084 26.5638C96.2084 26.3056 95.94 26.1024 95.6802 26.1743L95.6846 26.1786Z" fill="black"/>
<path d="M100.538 17.2884C102.503 9.52418 94.2991 1.67105 86.8352 0.290933C82.7309 -0.466862 78.4621 0.252829 74.964 2.48388C71.9594 4.39742 68.8855 7.79692 68.5045 11.3954C68.4959 11.4758 68.5218 11.5393 68.5565 11.5944C66.1883 17.534 68.7686 25.0018 73.9596 28.7739C79.1072 32.512 87.5712 33.8202 93.0436 29.9169C93.5068 29.5867 93.1215 28.9305 92.5933 29.1718C92.3941 29.2607 92.195 29.3496 92.0002 29.4385C91.9006 29.2692 91.6928 29.1591 91.433 29.2819C87.7877 30.9711 82.7266 30.1159 79.1245 28.8628C78.7176 28.7231 78.4405 29.3539 78.8301 29.5401C80.7481 30.4503 82.8348 30.9838 84.9736 31.0938C85.8654 31.1404 86.7616 31.1065 87.6534 31.0176C86.294 31.3521 84.8913 31.5045 83.3803 31.3732C80.3108 31.1023 77.6006 29.9847 75.0636 28.3251C72.0893 26.3819 70.0588 24.0154 69.0977 20.6286C68.2621 17.6948 68.2188 14.6044 69.141 11.7002C69.1799 11.6706 69.2189 11.6367 69.2405 11.5901C69.4007 11.2938 69.5566 11.0017 69.7124 10.7138C68.7989 13.0126 68.5305 15.5611 68.9418 17.9912C69.7168 22.6014 72.375 25.6453 76.2845 28.1473C76.752 28.4479 77.2239 27.6774 76.7261 27.4191C73.2539 25.6199 70.5004 21.5261 69.9159 17.7837C69.2708 13.6518 70.8078 9.77396 73.3232 6.48453C73.5396 6.20512 73.085 5.89607 72.8382 6.12045C72.427 6.49723 72.046 6.90365 71.691 7.33123C72.2668 6.48453 72.9119 5.68864 73.6868 4.94777C73.5093 5.23989 73.7951 5.68017 74.1501 5.4558C75.0636 4.88428 75.9468 4.27466 76.8949 3.7497C77.5703 3.37715 78.289 3.0808 78.9817 2.73789C79.0942 2.77176 79.2241 2.78023 79.3756 2.74213C84.4064 1.49325 89.4155 2.0309 93.3336 5.62514C93.4852 5.76484 93.6713 5.70134 93.7666 5.57434C93.7319 5.75214 93.8315 5.96381 94.0739 5.96381C94.4982 5.96381 94.4982 5.32455 94.0739 5.32455C93.9527 5.32455 93.8705 5.37536 93.8185 5.45156C93.8272 5.37959 93.8099 5.30339 93.7406 5.23142C92.4331 3.88094 90.7836 2.75482 88.9696 1.96739C94.2688 3.864 98.6761 8.5039 99.3125 13.8593C98.9185 12.1489 98.1869 10.4937 97.1175 8.99923C96.8448 8.62245 96.243 8.94842 96.4724 9.3633C97.8968 11.9119 98.5679 14.6975 98.6631 17.5848C98.7627 20.599 97.5634 23.173 95.9226 25.658C95.7538 25.912 96.1434 26.2211 96.3555 26.0094C96.4551 26.0602 96.5763 26.0602 96.6802 25.9671C99.0484 23.808 100.78 20.5736 100.546 17.335C100.546 17.318 100.538 17.3011 100.533 17.2842L100.538 17.2884Z" fill="black"/>
<path d="M77.5359 28.524C77.432 28.761 77.5705 28.9981 77.813 29.0786C77.9905 29.1378 78.1507 29.1971 78.3368 29.2225C78.6572 29.2606 78.7784 28.833 78.5836 28.6425C78.458 28.5155 78.2892 28.4266 78.1377 28.3292C77.9255 28.1895 77.6268 28.3123 77.5316 28.5282L77.5359 28.524Z" fill="black"/>
</svg>
