<svg width="297" height="33" viewBox="0 0 297 33" fill="none" xmlns="http://www.w3.org/2000/svg">
<path d="M15.1724 8.98637C15.1724 8.98637 14.431 9.6849 14.4183 11.7297V13.8676H11.7321V16.8903H14.4183V24.7011H17.5154V16.8903H20.1805L20.5533 13.8676H17.5154V11.7297C17.5239 11.4926 17.6298 10.4385 18.8755 10.4596H20.6889V7.61049H17.973C17.973 7.61049 16.2656 7.56815 15.1767 8.98214L15.1724 8.98637Z" fill="black"/>
<path d="M27.4508 26.1829C27.0059 26.3142 26.7601 26.8095 26.5483 27.1905C26.3576 27.5377 25.989 27.9441 25.989 28.3505C25.989 28.4817 26.1246 28.5876 26.2517 28.5495C26.6457 28.4394 26.9381 27.9779 27.222 27.7028C27.5355 27.398 27.9549 27.0254 27.9634 26.5682C27.9634 26.31 27.7007 26.1067 27.4465 26.1787L27.4508 26.1829Z" fill="black"/>
<path d="M32.2047 17.2884C34.1283 9.52418 26.0993 1.67105 18.7949 0.290933C14.7783 -0.466862 10.6007 0.252831 7.17723 2.48388C4.23681 4.39742 1.2286 7.79692 0.855752 11.3954C0.847279 11.4758 0.8727 11.5393 0.906595 11.5944C-1.411 17.5339 1.11421 25.0018 6.19427 28.7739C11.232 32.512 19.5151 33.8202 24.8748 29.9169C25.3282 29.5867 24.9511 28.9305 24.4342 29.1718C24.2393 29.2607 24.0444 29.3496 23.8537 29.4385C23.7563 29.2692 23.5529 29.1591 23.2987 29.2819C19.7312 30.9711 14.7783 30.1159 11.2531 28.8628C10.8549 28.7231 10.5837 29.3539 10.965 29.5401C12.842 30.4503 14.8842 30.9838 16.9772 31.0938C17.85 31.1404 18.7271 31.1065 19.5999 31.0176C18.2695 31.3521 16.8967 31.5045 15.418 31.3732C12.4141 31.1023 9.76175 29.9846 7.27892 28.3251C4.36816 26.3819 2.38104 24.0154 1.44045 20.6286C0.622722 17.6948 0.580352 14.6044 1.48282 11.7002C1.52095 11.6706 1.55908 11.6367 1.58026 11.5901C1.73703 11.2938 1.88956 11.0017 2.04209 10.7138C1.1481 13.0126 0.885411 15.5611 1.28792 17.9912C2.04633 22.6014 4.64779 25.6453 8.47373 28.1473C8.93132 28.4479 9.39314 27.6774 8.9059 27.4192C5.50789 25.6199 2.81321 21.5261 2.24122 17.7837C1.60992 13.6518 3.11403 9.77396 5.57568 6.48453C5.78752 6.20512 5.34265 5.89608 5.10114 6.12045C4.69864 6.49723 4.32579 6.90365 3.97836 7.33123C4.54187 6.48453 5.17317 5.68864 5.93158 4.94777C5.75787 5.23989 6.0375 5.68017 6.38493 5.45579C7.27892 4.88427 8.14325 4.27465 9.07113 3.7497C9.73209 3.37715 10.4354 3.0808 11.1133 2.73789C11.2235 2.77176 11.3506 2.78023 11.4989 2.74212C16.4222 1.49324 21.3243 2.0309 25.1587 5.62513C25.307 5.76484 25.4892 5.70134 25.5824 5.57433C25.5485 5.75214 25.646 5.96381 25.8832 5.96381C26.2984 5.96381 26.2984 5.32456 25.8832 5.32456C25.7646 5.32456 25.6841 5.37536 25.6332 5.45156C25.6417 5.37959 25.6205 5.30339 25.557 5.23142C24.2774 3.88093 22.6632 2.75483 20.8879 1.9674C26.0739 3.864 30.3871 8.50391 31.0099 13.8593C30.6243 12.1489 29.9083 10.4937 28.8618 8.99923C28.5948 8.62245 28.0059 8.94843 28.2305 9.36331C29.6244 11.9119 30.2811 14.6975 30.3744 17.5848C30.4718 20.599 29.2982 23.173 27.6924 25.658C27.5271 25.912 27.9085 26.2211 28.1161 26.0094C28.2135 26.0602 28.3322 26.0602 28.4338 25.9671C30.7514 23.808 32.4462 20.5736 32.2174 17.335C32.2174 17.318 32.2089 17.3011 32.2047 17.2842V17.2884Z" fill="black"/>
<path d="M9.68992 28.5284C9.58823 28.7654 9.72382 29.0025 9.96108 29.083C10.1348 29.1422 10.2916 29.2015 10.4737 29.2269C10.7873 29.265 10.9059 28.8374 10.7153 28.6469C10.5924 28.5199 10.4271 28.431 10.2789 28.3336C10.0712 28.1939 9.7789 28.3167 9.68569 28.5326L9.68992 28.5284Z" fill="black"/>
<path d="M288.364 9.8078C287.716 10.1888 287 10.4725 286.237 10.6206C285.623 9.96867 284.754 9.56226 283.793 9.56226C281.941 9.56226 280.441 11.0609 280.441 12.9109C280.441 13.1734 280.471 13.4274 280.526 13.6772C277.742 13.5375 275.272 12.204 273.62 10.1803C273.332 10.6757 273.167 11.2472 273.167 11.861C273.167 13.021 273.755 14.0455 274.658 14.6467C274.107 14.6297 273.59 14.4773 273.141 14.2276C273.141 14.2445 273.141 14.2572 273.141 14.2699C273.141 15.8913 274.298 17.246 275.827 17.5509C275.548 17.6271 275.251 17.6694 274.946 17.6694C274.73 17.6694 274.522 17.6482 274.315 17.6059C274.743 18.9394 275.98 19.9047 277.446 19.9343C276.298 20.8318 274.853 21.3695 273.285 21.3695C273.014 21.3695 272.751 21.3525 272.484 21.3229C273.967 22.2754 275.726 22.8258 277.62 22.8258C283.784 22.8258 287.153 17.7244 287.153 13.3004C287.153 13.1565 287.153 13.0126 287.144 12.8686C287.801 12.3945 288.369 11.806 288.813 11.1371C288.212 11.4038 287.568 11.5816 286.89 11.6621C287.581 11.2472 288.11 10.591 288.364 9.81203V9.8078Z" fill="black"/>
<path d="M291.834 26.1829C291.39 26.3142 291.144 26.8095 290.932 27.1905C290.741 27.5377 290.373 27.9441 290.373 28.3505C290.373 28.4817 290.508 28.5876 290.635 28.5495C291.029 28.4394 291.322 27.9779 291.606 27.7028C291.919 27.398 292.339 27.0254 292.347 26.5682C292.347 26.31 292.084 26.1067 291.83 26.1787L291.834 26.1829Z" fill="black"/>
<path d="M296.588 17.2884C298.512 9.52418 290.483 1.67105 283.178 0.290933C279.162 -0.466862 274.984 0.252831 271.561 2.48388C268.62 4.39742 265.612 7.79692 265.239 11.3954C265.231 11.4758 265.256 11.5393 265.29 11.5944C262.972 17.5339 265.498 25.0018 270.578 28.7739C275.615 32.512 283.899 33.8202 289.254 29.9169C289.707 29.5867 289.33 28.9305 288.813 29.1718C288.618 29.2607 288.424 29.3496 288.233 29.4385C288.135 29.2692 287.932 29.1591 287.682 29.2819C284.115 30.9711 279.162 30.1159 275.637 28.8628C275.238 28.7231 274.967 29.3539 275.348 29.5401C277.225 30.4503 279.268 30.9838 281.361 31.0938C282.233 31.1404 283.11 31.1065 283.983 31.0176C282.653 31.3521 281.28 31.5045 279.801 31.3732C276.797 31.1023 274.145 29.9846 271.662 28.3251C268.752 26.3819 266.764 24.0154 265.824 20.6286C265.006 17.6948 264.964 14.6044 265.866 11.7002C265.904 11.6706 265.943 11.6367 265.964 11.5901C266.12 11.2938 266.273 11.0017 266.426 10.7138C265.532 13.0126 265.269 15.5611 265.671 17.9912C266.43 22.6014 269.031 25.6453 272.857 28.1473C273.315 28.4479 273.777 27.6774 273.289 27.4192C269.891 25.6199 267.197 21.5261 266.625 17.7837C265.993 13.6518 267.497 9.77396 269.959 6.48453C270.171 6.20512 269.726 5.89608 269.485 6.12045C269.082 6.49723 268.709 6.90365 268.362 7.33123C268.925 6.48453 269.557 5.68864 270.315 4.94777C270.141 5.23989 270.421 5.68017 270.768 5.45579C271.662 4.88427 272.527 4.27465 273.455 3.7497C274.116 3.37715 274.819 3.0808 275.497 2.73789C275.607 2.77176 275.734 2.78023 275.882 2.74212C280.806 1.49324 285.708 2.0309 289.542 5.62513C289.69 5.76484 289.873 5.70134 289.966 5.57433C289.932 5.75214 290.029 5.96381 290.267 5.96381C290.682 5.96381 290.682 5.32456 290.267 5.32456C290.148 5.32456 290.068 5.37536 290.017 5.45156C290.025 5.37959 290.004 5.30339 289.94 5.23142C288.661 3.88093 287.047 2.75483 285.271 1.9674C290.457 3.864 294.77 8.50391 295.393 13.8593C295.008 12.1489 294.292 10.4937 293.245 8.99923C292.978 8.62245 292.389 8.94843 292.614 9.36331C294.008 11.9119 294.665 14.6975 294.758 17.5848C294.855 20.599 293.682 23.173 292.076 25.658C291.911 25.912 292.292 26.2211 292.5 26.0094C292.597 26.0602 292.716 26.0602 292.817 25.9671C295.135 23.808 296.83 20.5736 296.601 17.335C296.601 17.318 296.592 17.3011 296.588 17.2842V17.2884Z" fill="black"/>
<path d="M274.073 28.5284C273.972 28.7654 274.107 29.0025 274.344 29.083C274.518 29.1422 274.675 29.2015 274.857 29.2269C275.171 29.265 275.289 28.8374 275.099 28.6469C274.976 28.5199 274.81 28.431 274.662 28.3336C274.455 28.1939 274.162 28.3167 274.069 28.5326L274.073 28.5284Z" fill="black"/>
<path d="M217.998 7.6106H211.435C208.524 7.6106 206.168 9.96865 206.168 12.8728V19.4305C206.168 22.3389 208.528 24.6927 211.435 24.6927H217.998C220.908 24.6927 223.264 22.3347 223.264 19.4305V12.8728C223.264 9.96442 220.904 7.6106 217.998 7.6106V7.6106ZM221.624 18.7997C221.624 21.1493 219.718 23.0544 217.366 23.0544H212.062C209.71 23.0544 207.804 21.1493 207.804 18.7997V13.4994C207.804 11.1498 209.71 9.24472 212.062 9.24472H217.366C219.718 9.24472 221.624 11.1498 221.624 13.4994V18.7997Z" fill="black"/>
<path d="M214.947 11.6831C212.46 11.6831 210.443 13.6982 210.443 16.1833C210.443 18.6684 212.46 20.6835 214.947 20.6835C217.434 20.6835 219.451 18.6684 219.451 16.1833C219.451 13.6982 217.434 11.6831 214.947 11.6831ZM214.947 18.8885C213.452 18.8885 212.236 17.6777 212.236 16.1833C212.236 14.6889 213.447 13.4739 214.947 13.4739C216.447 13.4739 217.655 14.6847 217.655 16.1833C217.655 17.682 216.443 18.8885 214.947 18.8885Z" fill="black"/>
<path d="M219.137 10.4683C218.506 10.4683 217.993 10.9805 217.993 11.6113C217.993 12.2421 218.506 12.7543 219.137 12.7543C219.769 12.7543 220.281 12.2421 220.281 11.6113C220.281 10.9805 219.769 10.4683 219.137 10.4683Z" fill="black"/>
<path d="M225.743 26.1829C225.298 26.3142 225.052 26.8095 224.84 27.1905C224.65 27.5377 224.281 27.9441 224.281 28.3505C224.281 28.4817 224.417 28.5876 224.544 28.5495C224.938 28.4394 225.23 27.9779 225.514 27.7028C225.827 27.398 226.247 27.0254 226.255 26.5682C226.255 26.31 225.993 26.1067 225.739 26.1787L225.743 26.1829Z" fill="black"/>
<path d="M230.492 17.2884C232.416 9.52418 224.387 1.67105 217.083 0.290933C213.066 -0.466862 208.888 0.252831 205.465 2.48388C202.525 4.39742 199.516 7.79692 199.143 11.3954C199.135 11.4758 199.16 11.5393 199.194 11.5944C196.877 17.5339 199.402 25.0018 204.482 28.7739C209.52 32.512 217.803 33.8202 223.158 29.9169C223.612 29.5867 223.235 28.9305 222.718 29.1718C222.523 29.2607 222.328 29.3496 222.137 29.4385C222.04 29.2692 221.836 29.1591 221.582 29.2819C218.015 30.9711 213.062 30.1159 209.537 28.8628C209.138 28.7231 208.867 29.3539 209.249 29.5401C211.125 30.4503 213.168 30.9838 215.261 31.0938C216.134 31.1404 217.011 31.1065 217.883 31.0176C216.553 31.3521 215.18 31.5045 213.702 31.3732C210.698 31.1023 208.045 29.9846 205.562 28.3251C202.652 26.3819 200.665 24.0154 199.724 20.6286C198.906 17.6948 198.864 14.6044 199.766 11.7002C199.804 11.6706 199.843 11.6367 199.864 11.5901C200.021 11.2938 200.173 11.0017 200.326 10.7138C199.432 13.0126 199.169 15.5611 199.571 17.9912C200.33 22.6014 202.931 25.6453 206.757 28.1473C207.215 28.4479 207.677 27.6774 207.189 27.4192C203.791 25.6199 201.097 21.5261 200.525 17.7837C199.893 13.6518 201.398 9.77396 203.859 6.48453C204.071 6.20512 203.626 5.89608 203.385 6.12045C202.982 6.49723 202.609 6.90365 202.262 7.33123C202.825 6.48453 203.457 5.68864 204.215 4.94777C204.041 5.23989 204.321 5.68017 204.668 5.45579C205.562 4.88427 206.427 4.27465 207.355 3.7497C208.016 3.37715 208.719 3.0808 209.397 2.73789C209.507 2.77176 209.634 2.78023 209.782 2.74212C214.706 1.49324 219.608 2.0309 223.442 5.62513C223.59 5.76484 223.773 5.70134 223.866 5.57433C223.832 5.75214 223.929 5.96381 224.167 5.96381C224.582 5.96381 224.582 5.32456 224.167 5.32456C224.048 5.32456 223.968 5.37536 223.917 5.45156C223.925 5.37959 223.908 5.30339 223.84 5.23142C222.561 3.88093 220.947 2.75483 219.171 1.9674C224.357 3.864 228.671 8.50391 229.293 13.8593C228.908 12.1489 228.192 10.4937 227.145 8.99923C226.878 8.62245 226.289 8.94843 226.514 9.36331C227.908 11.9119 228.565 14.6975 228.658 17.5848C228.755 20.599 227.582 23.173 225.976 25.658C225.811 25.912 226.192 26.2211 226.4 26.0094C226.497 26.0602 226.616 26.0602 226.717 25.9671C229.035 23.808 230.73 20.5736 230.501 17.335C230.501 17.318 230.492 17.3011 230.488 17.2842L230.492 17.2884Z" fill="black"/>
<path d="M207.981 28.5284C207.88 28.7654 208.015 29.0025 208.253 29.083C208.426 29.1422 208.583 29.2015 208.765 29.2269C209.079 29.265 209.197 28.8374 209.007 28.6469C208.884 28.5199 208.719 28.431 208.57 28.3336C208.363 28.1939 208.07 28.3167 207.977 28.5326L207.981 28.5284Z" fill="black"/>
<path d="M141.683 23.2068H144.937V12.7416H141.683V23.2068ZM143.31 7.53866C142.267 7.53866 141.424 8.38535 141.424 9.42679C141.424 10.6291 142.547 11.5647 143.805 11.2472C144.441 11.0863 144.962 10.5698 145.131 9.93481C145.462 8.67323 144.517 7.53442 143.314 7.53442L143.31 7.53866ZM153.224 12.4834C151.639 12.4834 150.58 13.3512 150.144 14.1725H150.097V12.7416H146.975V23.2068H150.229V18.0293C150.229 16.6661 150.487 15.341 152.182 15.341C153.876 15.341 153.872 16.9031 153.872 18.1182V23.2068H157.126V17.4662C157.126 14.6509 156.516 12.4834 153.22 12.4834H153.224Z" fill="black"/>
<path d="M159.647 26.1829C159.203 26.3142 158.957 26.8095 158.745 27.1905C158.554 27.5377 158.186 27.9441 158.186 28.3505C158.186 28.4817 158.321 28.5876 158.448 28.5495C158.842 28.4394 159.135 27.9779 159.419 27.7028C159.732 27.398 160.152 27.0254 160.16 26.5682C160.16 26.31 159.897 26.1067 159.643 26.1787L159.647 26.1829Z" fill="black"/>
<path d="M164.397 17.2884C166.32 9.52418 158.291 1.67105 150.987 0.290933C146.97 -0.466862 142.793 0.252831 139.369 2.48388C136.429 4.39742 133.421 7.79692 133.048 11.3954C133.039 11.4758 133.065 11.5393 133.099 11.5944C130.781 17.5339 133.306 25.0018 138.386 28.7739C143.424 32.512 151.707 33.8202 157.063 29.9169C157.516 29.5867 157.139 28.9305 156.622 29.1718C156.427 29.2607 156.232 29.3496 156.042 29.4385C155.944 29.2692 155.741 29.1591 155.486 29.2819C151.919 30.9711 146.966 30.1159 143.441 28.8628C143.043 28.7231 142.771 29.3539 143.153 29.5401C145.03 30.4503 147.072 30.9838 149.165 31.0938C150.038 31.1404 150.915 31.1065 151.788 31.0176C150.457 31.3521 149.085 31.5045 147.606 31.3732C144.602 31.1023 141.95 29.9846 139.467 28.3251C136.556 26.3819 134.569 24.0154 133.628 20.6286C132.811 17.6948 132.768 14.6044 133.671 11.7002C133.709 11.6706 133.747 11.6367 133.768 11.5901C133.925 11.2938 134.077 11.0017 134.23 10.7138C133.336 13.0126 133.073 15.5611 133.476 17.9912C134.234 22.6014 136.836 25.6453 140.662 28.1473C141.119 28.4479 141.581 27.6774 141.094 27.4192C137.696 25.6199 135.001 21.5261 134.429 17.7837C133.798 13.6518 135.302 9.77396 137.763 6.48453C137.975 6.20512 137.53 5.89608 137.289 6.12045C136.886 6.49723 136.514 6.90365 136.166 7.33123C136.73 6.48453 137.361 5.68864 138.119 4.94777C137.946 5.23989 138.225 5.68017 138.573 5.45579C139.467 4.88427 140.331 4.27465 141.259 3.7497C141.92 3.37715 142.623 3.0808 143.301 2.73789C143.411 2.77176 143.538 2.78023 143.687 2.74212C148.61 1.49324 153.512 2.0309 157.346 5.62513C157.495 5.76484 157.677 5.70134 157.77 5.57433C157.736 5.75214 157.834 5.96381 158.071 5.96381C158.486 5.96381 158.486 5.32456 158.071 5.32456C157.952 5.32456 157.872 5.37536 157.821 5.45156C157.83 5.37959 157.808 5.30339 157.745 5.23142C156.465 3.88093 154.851 2.75483 153.076 1.9674C158.262 3.864 162.575 8.50391 163.198 13.8593C162.812 12.1489 162.096 10.4937 161.05 8.99923C160.783 8.62245 160.194 8.94843 160.418 9.36331C161.812 11.9119 162.469 14.6975 162.562 17.5848C162.66 20.599 161.486 23.173 159.88 25.658C159.715 25.912 160.096 26.2211 160.304 26.0094C160.401 26.0602 160.52 26.0602 160.622 25.9671C162.939 23.808 164.634 20.5736 164.405 17.335C164.405 17.318 164.397 17.3011 164.392 17.2842L164.397 17.2884Z" fill="black"/>
<path d="M141.886 28.5284C141.784 28.7654 141.92 29.0025 142.157 29.083C142.331 29.1422 142.488 29.2015 142.67 29.2269C142.983 29.265 143.102 28.8374 142.911 28.6469C142.789 28.5199 142.623 28.431 142.475 28.3336C142.267 28.1939 141.975 28.3167 141.882 28.5326L141.886 28.5284Z" fill="black"/>
<path d="M89.7884 9.39287C89.6655 9.39287 89.5342 9.4225 89.4028 9.48177L75.0651 15.0065C74.0864 15.4044 74.0991 15.9463 74.8914 16.1834L78.5733 17.3349H78.5945L79.8528 21.488C80.0265 21.9452 79.9376 22.1314 80.4248 22.1314C80.7977 22.1314 80.9587 21.9579 81.1705 21.7589C81.3019 21.6319 82.0645 20.891 82.9246 20.057L82.9458 20.0359L86.6446 22.7622C86.9031 22.9019 87.1319 22.9612 87.331 22.94C87.67 22.9146 87.9157 22.6522 88.0301 22.1314L90.4748 10.6333C90.6782 9.81621 90.2926 9.36747 89.7884 9.39287V9.39287Z" fill="black"/>
<path d="M93.551 26.1786C93.1061 26.3098 92.8604 26.8051 92.6485 27.1861C92.4578 27.5333 92.0892 27.9397 92.0892 28.3461C92.0892 28.4773 92.2248 28.5832 92.3519 28.5451C92.746 28.435 93.0383 27.9736 93.3222 27.6984C93.6357 27.3936 94.0552 27.021 94.0636 26.5638C94.0636 26.3056 93.8009 26.1024 93.5467 26.1743L93.551 26.1786Z" fill="black"/>
<path d="M98.3005 17.2884C100.224 9.52418 92.1951 1.67105 84.8907 0.290933C80.8741 -0.466862 76.6965 0.252829 73.2731 2.48388C70.3326 4.39742 67.3244 7.79692 66.9516 11.3954C66.9431 11.4758 66.9685 11.5393 67.0024 11.5944C64.6848 17.534 67.21 25.0018 72.2901 28.7739C77.3278 32.512 85.611 33.8202 90.9664 29.9169C91.4198 29.5867 91.0427 28.9305 90.5258 29.1718C90.3309 29.2607 90.136 29.3496 89.9453 29.4385C89.8479 29.2692 89.6445 29.1591 89.3903 29.2819C85.8228 30.9711 80.8699 30.1159 77.3447 28.8628C76.9465 28.7231 76.6753 29.3539 77.0566 29.5401C78.9336 30.4503 80.9758 30.9838 83.0688 31.0938C83.9416 31.1404 84.8187 31.1065 85.6915 31.0176C84.3611 31.3521 82.9883 31.5045 81.5096 31.3732C78.5056 31.1023 75.8533 29.9847 73.3705 28.3251C70.4597 26.3819 68.4726 24.0154 67.532 20.6286C66.7143 17.6948 66.6719 14.6044 67.5744 11.7002C67.6125 11.6706 67.6507 11.6367 67.6718 11.5901C67.8286 11.2938 67.9812 11.0017 68.1337 10.7138C67.2397 13.0126 66.977 15.5611 67.3795 17.9912C68.1379 22.6014 70.7394 25.6453 74.5653 28.1473C75.0229 28.4479 75.4847 27.6774 74.9975 27.4191C71.5995 25.6199 68.9048 21.5261 68.3328 17.7837C67.7015 13.6518 69.2056 9.77396 71.6673 6.48453C71.8791 6.20512 71.4342 5.89607 71.1927 6.12045C70.7902 6.49723 70.4174 6.90365 70.0699 7.33123C70.6335 6.48453 71.2648 5.68864 72.0232 4.94777C71.8495 5.23989 72.1291 5.68017 72.4765 5.4558C73.3705 4.88428 74.2348 4.27466 75.1627 3.7497C75.8237 3.37715 76.527 3.0808 77.2049 2.73789C77.3151 2.77176 77.4422 2.78023 77.5905 2.74213C82.5138 1.49325 87.4159 2.0309 91.2503 5.62514C91.3986 5.76484 91.5808 5.70134 91.674 5.57434C91.6401 5.75214 91.7375 5.96381 91.9748 5.96381C92.39 5.96381 92.39 5.32455 91.9748 5.32455C91.8562 5.32455 91.7757 5.37536 91.7248 5.45156C91.7333 5.37959 91.7164 5.30339 91.6486 5.23142C90.369 3.88094 88.7548 2.75482 86.9795 1.96739C92.1655 3.864 96.4787 8.5039 97.1015 13.8593C96.7159 12.1489 95.9999 10.4937 94.9534 8.99923C94.6864 8.62245 94.0975 8.94842 94.3221 9.3633C95.716 11.9119 96.3727 14.6975 96.4659 17.5848C96.5634 20.599 95.3898 23.173 93.784 25.658C93.6187 25.912 94.0001 26.2211 94.2077 26.0094C94.3051 26.0602 94.4237 26.0602 94.5254 25.9671C96.843 23.808 98.5378 20.5736 98.309 17.335C98.309 17.318 98.3005 17.3011 98.2963 17.2842L98.3005 17.2884Z" fill="black"/>
<path d="M75.7899 28.524C75.6882 28.761 75.8238 28.9981 76.0611 29.0786C76.2348 29.1378 76.3915 29.1971 76.5737 29.2225C76.8873 29.2606 77.0059 28.833 76.8152 28.6425C76.6924 28.5155 76.5271 28.4266 76.3788 28.3292C76.1712 28.1895 75.8789 28.3123 75.7857 28.5282L75.7899 28.524Z" fill="black"/>
</svg>
