<svg width="18" height="18" viewBox="0 0 18 18" fill="none" xmlns="http://www.w3.org/2000/svg">
<path d="M10.5655 13.196C11.5006 12.8256 12.2789 12.135 12.7658 11.2438C13.2527 10.3526 13.4176 9.31666 13.232 8.31508C13.0463 7.31294 12.5219 6.40802 11.7493 5.75643C10.9767 5.10484 10.0044 4.74744 9 4.74587C7.9952 4.74595 7.02197 5.10233 6.24846 5.75345C5.47494 6.40458 4.94971 7.30955 4.7635 8.31204C4.57731 9.31464 4.74249 10.3518 5.23042 11.2437C5.71835 12.1356 6.49827 12.8261 7.435 13.1955C7.50423 13.2259 7.57978 13.2385 7.65495 13.2322C7.73012 13.2259 7.8026 13.2008 7.86594 13.1592C7.92929 13.1177 7.98156 13.0609 8.01812 12.9939C8.05467 12.9269 8.07438 12.8518 8.0755 12.7752V9.12172C8.08339 8.87813 8.18425 8.64719 8.35677 8.4777C8.52928 8.30822 8.75994 8.21346 9 8.21346C9.24006 8.21346 9.47072 8.30822 9.64323 8.4777C9.81575 8.64719 9.91661 8.87813 9.9245 9.12172V12.7752C9.92586 12.8517 9.94573 12.9266 9.98235 12.9935C10.019 13.0604 10.0712 13.117 10.1345 13.1586C10.1978 13.2001 10.2701 13.2252 10.3452 13.2316C10.4203 13.2381 10.4958 13.2257 10.565 13.1955L10.5655 13.196ZM11.104 16.9587C14.5025 16.0226 17 12.8686 17 9.12223C17 4.63521 13.4195 1 9 1C4.5805 1 1 4.63521 1 9.12223C1 12.8686 3.4975 16.0226 6.896 16.9587C6.906 16.9642 6.9195 16.9663 6.93 16.9688L6.9685 16.9795V16.9769C8.1405 17.2201 8.5465 15.4677 7.393 15.153C5.95256 14.7585 4.70247 13.8459 3.8756 12.5851C3.04873 11.3243 2.70147 9.8013 2.8985 8.29985C3.09448 6.79842 3.821 5.4204 4.94289 4.42215C6.06478 3.4239 7.50564 2.87342 8.99741 2.8731C10.4892 2.87279 11.9303 3.42268 13.0525 4.42046C14.1748 5.41824 14.9019 6.79597 15.0985 8.29732C15.2962 9.79845 14.9499 11.3214 14.124 12.5826C13.2981 13.8438 12.0489 14.7573 10.609 15.153C9.453 15.4652 9.8615 17.2201 11.031 16.9769H11.0335L11.072 16.9663L11.104 16.9587Z" fill="#5A6689"/>
</svg>
