<svg width="297" height="33" viewBox="0 0 297 33" fill="none" xmlns="http://www.w3.org/2000/svg">
<path d="M15.1197 8.98637C15.1197 8.98637 14.3789 9.6849 14.3662 11.7297V13.8676H11.6821V16.8903H14.3662V24.7011H17.4608V16.8903H20.1237L20.4963 13.8676H17.4608V11.7297C17.4693 11.4926 17.5752 10.4385 18.8198 10.4596H20.6317V7.61049H17.9181C17.9181 7.61049 16.212 7.56815 15.124 8.98214L15.1197 8.98637Z" fill="black"/>
<path d="M27.3883 26.1829C26.9438 26.3142 26.6982 26.8095 26.4866 27.1905C26.296 27.5377 25.9277 27.9441 25.9277 28.3505C25.9277 28.4817 26.0632 28.5876 26.1902 28.5495C26.5839 28.4394 26.876 27.9779 27.1597 27.7028C27.473 27.398 27.8921 27.0254 27.9005 26.5682C27.9005 26.31 27.6381 26.1067 27.3841 26.1787L27.3883 26.1829Z" fill="black"/>
<path d="M32.1383 17.2884C34.0603 9.52418 26.0378 1.67105 18.7393 0.290933C14.7259 -0.466862 10.5517 0.252831 7.13106 2.48388C4.19302 4.39742 1.18724 7.79692 0.814688 11.3954C0.806221 11.4758 0.831622 11.5393 0.865489 11.5944C-1.45023 17.5339 1.07293 25.0018 6.14889 28.7739C11.1825 32.512 19.459 33.8202 24.8144 29.9169C25.2673 29.5867 24.8906 28.9305 24.3741 29.1718C24.1793 29.2607 23.9846 29.3496 23.7941 29.4385C23.6967 29.2692 23.4935 29.1591 23.2395 29.2819C19.6749 30.9711 14.7259 30.1159 11.2037 28.8628C10.8057 28.7231 10.5348 29.3539 10.9158 29.5401C12.7912 30.4503 14.8318 30.9838 16.9231 31.0938C17.7952 31.1404 18.6716 31.1065 19.5437 31.0176C18.2143 31.3521 16.8427 31.5045 15.3652 31.3732C12.3637 31.1023 9.71349 29.9846 7.23266 28.3251C4.32425 26.3819 2.33875 24.0154 1.39891 20.6286C0.581846 17.6948 0.539511 14.6044 1.44124 11.7002C1.47935 11.6706 1.51745 11.6367 1.53861 11.5901C1.69525 11.2938 1.84766 11.0017 2.00007 10.7138C1.1068 13.0126 0.844323 15.5611 1.2465 17.9912C2.0043 22.6014 4.60366 25.6453 8.42651 28.1473C8.88372 28.4479 9.34518 27.6774 8.85832 27.4192C5.46306 25.6199 2.77056 21.5261 2.19904 17.7837C1.56825 13.6518 3.07114 9.77396 5.5308 6.48453C5.74247 6.20512 5.29796 5.89608 5.05665 6.12045C4.65447 6.49723 4.28192 6.90365 3.93477 7.33123C4.49783 6.48453 5.12862 5.68864 5.88641 4.94777C5.71284 5.23989 5.99225 5.68017 6.3394 5.45579C7.23266 4.88427 8.09629 4.27465 9.02343 3.7497C9.68385 3.37715 10.3866 3.0808 11.064 2.73789C11.174 2.77176 11.3011 2.78023 11.4492 2.74212C16.3685 1.49324 21.2667 2.0309 25.098 5.62513C25.2462 5.76484 25.4282 5.70134 25.5214 5.57433C25.4875 5.75214 25.5849 5.96381 25.8219 5.96381C26.2368 5.96381 26.2368 5.32456 25.8219 5.32456C25.7034 5.32456 25.623 5.37536 25.5722 5.45156C25.5806 5.37959 25.5595 5.30339 25.496 5.23142C24.2174 3.88093 22.6045 2.75483 20.8306 1.9674C26.0124 3.864 30.3221 8.50391 30.9445 13.8593C30.5592 12.1489 29.8437 10.4937 28.7981 8.99923C28.5314 8.62245 27.9429 8.94843 28.1673 9.36331C29.5601 11.9119 30.2163 14.6975 30.3094 17.5848C30.4068 20.599 29.2341 23.173 27.6296 25.658C27.4645 25.912 27.8455 26.2211 28.053 26.0094C28.1504 26.0602 28.2689 26.0602 28.3705 25.9671C30.6862 23.808 32.3796 20.5736 32.151 17.335C32.151 17.318 32.1425 17.3011 32.1383 17.2842V17.2884Z" fill="black"/>
<path d="M9.64155 28.5281C9.53995 28.7652 9.67542 29.0023 9.9125 29.0827C10.0861 29.142 10.2427 29.2013 10.4247 29.2267C10.738 29.2648 10.8566 28.8372 10.6661 28.6467C10.5433 28.5197 10.3782 28.4308 10.23 28.3334C10.0226 28.1937 9.73046 28.3165 9.63732 28.5324L9.64155 28.5281Z" fill="black"/>
<path d="M288.091 9.8078C287.444 10.1888 286.728 10.4725 285.966 10.6206C285.352 9.96867 284.484 9.56226 283.523 9.56226C281.673 9.56226 280.175 11.0609 280.175 12.9109C280.175 13.1734 280.204 13.4274 280.259 13.6772C277.478 13.5375 275.01 12.204 273.359 10.1803C273.071 10.6757 272.906 11.2472 272.906 11.861C272.906 13.021 273.494 14.0455 274.396 14.6467C273.846 14.6297 273.329 14.4773 272.88 14.2276C272.88 14.2445 272.88 14.2572 272.88 14.2699C272.88 15.8913 274.036 17.246 275.564 17.5509C275.285 17.6271 274.989 17.6694 274.684 17.6694C274.468 17.6694 274.26 17.6482 274.053 17.6059C274.481 18.9394 275.717 19.9047 277.182 19.9343C276.034 20.8318 274.591 21.3695 273.024 21.3695C272.753 21.3695 272.491 21.3525 272.224 21.3229C273.706 22.2754 275.463 22.8258 277.355 22.8258C283.515 22.8258 286.88 17.7244 286.88 13.3004C286.88 13.1565 286.88 13.0126 286.872 12.8686C287.528 12.3945 288.095 11.806 288.54 11.1371C287.939 11.4038 287.295 11.5816 286.618 11.6621C287.308 11.2472 287.837 10.591 288.091 9.81203V9.8078Z" fill="black"/>
<path d="M291.558 26.1829C291.114 26.3142 290.868 26.8095 290.656 27.1905C290.466 27.5377 290.098 27.9441 290.098 28.3505C290.098 28.4817 290.233 28.5876 290.36 28.5495C290.754 28.4394 291.046 27.9779 291.33 27.7028C291.643 27.398 292.062 27.0254 292.07 26.5682C292.07 26.31 291.808 26.1067 291.554 26.1787L291.558 26.1829Z" fill="black"/>
<path d="M296.308 17.2884C298.23 9.52418 290.208 1.67105 282.909 0.290933C278.896 -0.466862 274.722 0.252831 271.301 2.48388C268.363 4.39742 265.357 7.79692 264.985 11.3954C264.976 11.4758 265.002 11.5393 265.035 11.5944C262.72 17.5339 265.243 25.0018 270.319 28.7739C275.352 32.512 283.629 33.8202 288.98 29.9169C289.433 29.5867 289.056 28.9305 288.54 29.1718C288.345 29.2607 288.15 29.3496 287.96 29.4385C287.862 29.2692 287.659 29.1591 287.409 29.2819C283.845 30.9711 278.896 30.1159 275.374 28.8628C274.976 28.7231 274.705 29.3539 275.086 29.5401C276.961 30.4503 279.002 30.9838 281.093 31.0938C281.965 31.1404 282.841 31.1065 283.714 31.0176C282.384 31.3521 281.013 31.5045 279.535 31.3732C276.534 31.1023 273.883 29.9846 271.403 28.3251C268.494 26.3819 266.509 24.0154 265.569 20.6286C264.752 17.6948 264.709 14.6044 265.611 11.7002C265.649 11.6706 265.687 11.6367 265.709 11.5901C265.865 11.2938 266.018 11.0017 266.17 10.7138C265.277 13.0126 265.014 15.5611 265.416 17.9912C266.174 22.6014 268.774 25.6453 272.596 28.1473C273.054 28.4479 273.515 27.6774 273.028 27.4192C269.633 25.6199 266.94 21.5261 266.369 17.7837C265.738 13.6518 267.241 9.77396 269.701 6.48453C269.912 6.20512 269.468 5.89608 269.227 6.12045C268.824 6.49723 268.452 6.90365 268.105 7.33123C268.668 6.48453 269.299 5.68864 270.056 4.94777C269.883 5.23989 270.162 5.68017 270.509 5.45579C271.403 4.88427 272.266 4.27465 273.193 3.7497C273.854 3.37715 274.557 3.0808 275.234 2.73789C275.344 2.77176 275.471 2.78023 275.619 2.74212C280.538 1.49324 285.437 2.0309 289.268 5.62513C289.416 5.76484 289.598 5.70134 289.691 5.57433C289.657 5.75214 289.755 5.96381 289.992 5.96381C290.407 5.96381 290.407 5.32456 289.992 5.32456C289.873 5.32456 289.793 5.37536 289.742 5.45156C289.751 5.37959 289.729 5.30339 289.666 5.23142C288.387 3.88093 286.774 2.75483 285.001 1.9674C290.182 3.864 294.492 8.50391 295.114 13.8593C294.729 12.1489 294.014 10.4937 292.968 8.99923C292.701 8.62245 292.113 8.94843 292.337 9.36331C293.73 11.9119 294.386 14.6975 294.479 17.5848C294.577 20.599 293.404 23.173 291.8 25.658C291.634 25.912 292.015 26.2211 292.223 26.0094C292.32 26.0602 292.439 26.0602 292.54 25.9671C294.856 23.808 296.55 20.5736 296.321 17.335C296.321 17.318 296.312 17.3011 296.308 17.2842V17.2884Z" fill="black"/>
<path d="M273.811 28.5281C273.71 28.7652 273.845 29.0023 274.082 29.0827C274.256 29.142 274.413 29.2013 274.595 29.2267C274.908 29.2648 275.026 28.8372 274.836 28.6467C274.713 28.5197 274.548 28.4308 274.4 28.3334C274.192 28.1937 273.9 28.3165 273.807 28.5324L273.811 28.5281Z" fill="black"/>
<path d="M217.781 7.6106H211.223C208.315 7.6106 205.961 9.96865 205.961 12.8728V19.4305C205.961 22.3389 208.319 24.6927 211.223 24.6927H217.781C220.689 24.6927 223.043 22.3347 223.043 19.4305V12.8728C223.043 9.96442 220.685 7.6106 217.781 7.6106V7.6106ZM221.405 18.7997C221.405 21.1493 219.5 23.0544 217.15 23.0544H211.85C209.5 23.0544 207.595 21.1493 207.595 18.7997V13.4994C207.595 11.1498 209.5 9.24472 211.85 9.24472H217.15C219.5 9.24472 221.405 11.1498 221.405 13.4994V18.7997Z" fill="black"/>
<path d="M214.733 11.6831C212.248 11.6831 210.233 13.6982 210.233 16.1833C210.233 18.6684 212.248 20.6835 214.733 20.6835C217.218 20.6835 219.233 18.6684 219.233 16.1833C219.233 13.6982 217.218 11.6831 214.733 11.6831ZM214.733 18.8885C213.239 18.8885 212.024 17.6777 212.024 16.1833C212.024 14.6889 213.234 13.4739 214.733 13.4739C216.232 13.4739 217.438 14.6847 217.438 16.1833C217.438 17.682 216.228 18.8885 214.733 18.8885Z" fill="black"/>
<path d="M218.92 10.4683C218.289 10.4683 217.777 10.9805 217.777 11.6113C217.777 12.2421 218.289 12.7543 218.92 12.7543C219.551 12.7543 220.063 12.2421 220.063 11.6113C220.063 10.9805 219.551 10.4683 218.92 10.4683Z" fill="black"/>
<path d="M225.52 26.1829C225.075 26.3142 224.83 26.8095 224.618 27.1905C224.427 27.5377 224.059 27.9441 224.059 28.3505C224.059 28.4817 224.195 28.5876 224.322 28.5495C224.715 28.4394 225.007 27.9779 225.291 27.7028C225.604 27.398 226.023 27.0254 226.032 26.5682C226.032 26.31 225.769 26.1067 225.515 26.1787L225.52 26.1829Z" fill="black"/>
<path d="M230.266 17.2884C232.188 9.52418 224.165 1.67105 216.867 0.290933C212.853 -0.466862 208.679 0.252831 205.258 2.48388C202.32 4.39742 199.315 7.79692 198.942 11.3954C198.934 11.4758 198.959 11.5393 198.993 11.5944C196.677 17.5339 199.2 25.0018 204.276 28.7739C209.31 32.512 217.586 33.8202 222.938 29.9169C223.391 29.5867 223.014 28.9305 222.497 29.1718C222.303 29.2607 222.108 29.3496 221.917 29.4385C221.82 29.2692 221.617 29.1591 221.363 29.2819C217.798 30.9711 212.849 30.1159 209.327 28.8628C208.929 28.7231 208.658 29.3539 209.039 29.5401C210.914 30.4503 212.955 30.9838 215.046 31.0938C215.918 31.1404 216.795 31.1065 217.667 31.0176C216.338 31.3521 214.966 31.5045 213.488 31.3732C210.487 31.1023 207.837 29.9846 205.356 28.3251C202.447 26.3819 200.462 24.0154 199.522 20.6286C198.705 17.6948 198.663 14.6044 199.564 11.7002C199.603 11.6706 199.641 11.6367 199.662 11.5901C199.818 11.2938 199.971 11.0017 200.123 10.7138C199.23 13.0126 198.968 15.5611 199.37 17.9912C200.127 22.6014 202.727 25.6453 206.55 28.1473C207.007 28.4479 207.468 27.6774 206.982 27.4192C203.586 25.6199 200.894 21.5261 200.322 17.7837C199.691 13.6518 201.194 9.77396 203.654 6.48453C203.866 6.20512 203.421 5.89608 203.18 6.12045C202.778 6.49723 202.405 6.90365 202.058 7.33123C202.621 6.48453 203.252 5.68864 204.01 4.94777C203.836 5.23989 204.115 5.68017 204.463 5.45579C205.356 4.88427 206.22 4.27465 207.147 3.7497C207.807 3.37715 208.51 3.0808 209.187 2.73789C209.297 2.77176 209.424 2.78023 209.572 2.74212C214.492 1.49324 219.39 2.0309 223.221 5.62513C223.369 5.76484 223.551 5.70134 223.645 5.57433C223.611 5.75214 223.708 5.96381 223.945 5.96381C224.36 5.96381 224.36 5.32456 223.945 5.32456C223.827 5.32456 223.746 5.37536 223.695 5.45156C223.704 5.37959 223.687 5.30339 223.619 5.23142C222.341 3.88093 220.728 2.75483 218.954 1.9674C224.136 3.864 228.445 8.50391 229.068 13.8593C228.682 12.1489 227.967 10.4937 226.921 8.99923C226.655 8.62245 226.066 8.94843 226.29 9.36331C227.683 11.9119 228.34 14.6975 228.433 17.5848C228.53 20.599 227.357 23.173 225.753 25.658C225.588 25.912 225.969 26.2211 226.176 26.0094C226.274 26.0602 226.392 26.0602 226.494 25.9671C228.809 23.808 230.503 20.5736 230.274 17.335C230.274 17.318 230.266 17.3011 230.262 17.2842L230.266 17.2884Z" fill="black"/>
<path d="M207.773 28.5281C207.671 28.7652 207.807 29.0023 208.044 29.0827C208.217 29.142 208.374 29.2013 208.556 29.2267C208.869 29.2648 208.988 28.8372 208.797 28.6467C208.675 28.5197 208.51 28.4308 208.361 28.3334C208.154 28.1937 207.862 28.3165 207.769 28.5324L207.773 28.5281Z" fill="black"/>
<path d="M141.527 23.2068H144.779V12.7416H141.527V23.2068ZM143.153 7.53866C142.112 7.53866 141.269 8.38535 141.269 9.42679C141.269 10.6291 142.391 11.5647 143.648 11.2472C144.283 11.0863 144.804 10.5698 144.973 9.93481C145.304 8.67323 144.359 7.53442 143.157 7.53442L143.153 7.53866ZM153.059 12.4834C151.476 12.4834 150.418 13.3512 149.982 14.1725H149.935V12.7416H146.815V23.2068H150.066V18.0293C150.066 16.6661 150.324 15.341 152.018 15.341C153.711 15.341 153.707 16.9031 153.707 18.1182V23.2068H156.958V17.4662C156.958 14.6509 156.349 12.4834 153.055 12.4834H153.059Z" fill="black"/>
<path d="M159.478 26.1829C159.033 26.3142 158.788 26.8095 158.576 27.1905C158.385 27.5377 158.017 27.9441 158.017 28.3505C158.017 28.4817 158.153 28.5876 158.28 28.5495C158.673 28.4394 158.965 27.9779 159.249 27.7028C159.562 27.398 159.981 27.0254 159.99 26.5682C159.99 26.31 159.727 26.1067 159.473 26.1787L159.478 26.1829Z" fill="black"/>
<path d="M164.223 17.2884C166.145 9.52418 158.123 1.67105 150.824 0.290933C146.811 -0.466862 142.637 0.252831 139.216 2.48388C136.278 4.39742 133.272 7.79692 132.9 11.3954C132.891 11.4758 132.917 11.5393 132.95 11.5944C130.635 17.5339 133.158 25.0018 138.234 28.7739C143.267 32.512 151.544 33.8202 156.895 29.9169C157.348 29.5867 156.971 28.9305 156.455 29.1718C156.26 29.2607 156.065 29.3496 155.875 29.4385C155.777 29.2692 155.574 29.1591 155.32 29.2819C151.756 30.9711 146.807 30.1159 143.284 28.8628C142.886 28.7231 142.616 29.3539 142.997 29.5401C144.872 30.4503 146.913 30.9838 149.004 31.0938C149.876 31.1404 150.752 31.1065 151.624 31.0176C150.295 31.3521 148.923 31.5045 147.446 31.3732C144.444 31.1023 141.794 29.9846 139.313 28.3251C136.405 26.3819 134.419 24.0154 133.48 20.6286C132.663 17.6948 132.62 14.6044 133.522 11.7002C133.56 11.6706 133.598 11.6367 133.619 11.5901C133.776 11.2938 133.928 11.0017 134.081 10.7138C133.188 13.0126 132.925 15.5611 133.327 17.9912C134.085 22.6014 136.684 25.6453 140.507 28.1473C140.964 28.4479 141.426 27.6774 140.939 27.4192C137.544 25.6199 134.851 21.5261 134.28 17.7837C133.649 13.6518 135.152 9.77396 137.612 6.48453C137.823 6.20512 137.379 5.89608 137.137 6.12045C136.735 6.49723 136.363 6.90365 136.016 7.33123C136.579 6.48453 137.209 5.68864 137.967 4.94777C137.794 5.23989 138.073 5.68017 138.42 5.45579C139.313 4.88427 140.177 4.27465 141.104 3.7497C141.765 3.37715 142.467 3.0808 143.145 2.73789C143.255 2.77176 143.382 2.78023 143.53 2.74212C148.449 1.49324 153.347 2.0309 157.179 5.62513C157.327 5.76484 157.509 5.70134 157.602 5.57433C157.568 5.75214 157.666 5.96381 157.903 5.96381C158.318 5.96381 158.318 5.32456 157.903 5.32456C157.784 5.32456 157.704 5.37536 157.653 5.45156C157.661 5.37959 157.64 5.30339 157.577 5.23142C156.298 3.88093 154.685 2.75483 152.911 1.9674C158.093 3.864 162.403 8.50391 163.025 13.8593C162.64 12.1489 161.924 10.4937 160.879 8.99923C160.612 8.62245 160.024 8.94843 160.248 9.36331C161.641 11.9119 162.297 14.6975 162.39 17.5848C162.488 20.599 161.315 23.173 159.71 25.658C159.545 25.912 159.926 26.2211 160.134 26.0094C160.231 26.0602 160.35 26.0602 160.451 25.9671C162.767 23.808 164.46 20.5736 164.232 17.335C164.232 17.318 164.223 17.3011 164.219 17.2842L164.223 17.2884Z" fill="black"/>
<path d="M141.731 28.5281C141.629 28.7652 141.765 29.0023 142.002 29.0827C142.175 29.142 142.332 29.2013 142.514 29.2267C142.827 29.2648 142.946 28.8372 142.755 28.6467C142.633 28.5197 142.468 28.4308 142.319 28.3334C142.112 28.1937 141.82 28.3165 141.727 28.5324L141.731 28.5281Z" fill="black"/>
<path d="M89.6756 9.39287C89.5528 9.39287 89.4215 9.4225 89.2903 9.48177L74.9642 15.0065C73.9862 15.4044 73.9989 15.9463 74.7906 16.1834L78.4695 17.3349H78.4907L79.748 21.488C79.9216 21.9452 79.8327 22.1314 80.3195 22.1314C80.6921 22.1314 80.853 21.9579 81.0646 21.7589C81.1959 21.6319 81.9579 20.891 82.8173 20.057L82.8385 20.0359L86.5343 22.7622C86.7925 22.9019 87.0212 22.9612 87.2201 22.94C87.5588 22.9146 87.8043 22.6522 87.9187 22.1314L90.3614 10.6333C90.5646 9.81621 90.1793 9.36747 89.6756 9.39287V9.39287Z" fill="black"/>
<path d="M93.4352 26.1786C92.9907 26.3098 92.7451 26.8051 92.5334 27.1861C92.3429 27.5333 91.9746 27.9397 91.9746 28.3461C91.9746 28.4773 92.1101 28.5832 92.2371 28.5451C92.6308 28.435 92.9229 27.9736 93.2066 27.6984C93.5198 27.3936 93.939 27.021 93.9474 26.5638C93.9474 26.3056 93.6849 26.1024 93.4309 26.1743L93.4352 26.1786Z" fill="black"/>
<path d="M98.1808 17.2884C100.103 9.52418 92.0803 1.67105 84.7818 0.290933C80.7684 -0.466862 76.5942 0.252829 73.1735 2.48388C70.2355 4.39742 67.2297 7.79692 66.8572 11.3954C66.8487 11.4758 66.8741 11.5393 66.908 11.5944C64.5922 17.534 67.1154 25.0018 72.1914 28.7739C77.225 32.512 85.5015 33.8202 90.8526 29.9169C91.3056 29.5867 90.9288 28.9305 90.4123 29.1718C90.2176 29.2607 90.0228 29.3496 89.8323 29.4385C89.735 29.2692 89.5318 29.1591 89.2777 29.2819C85.7131 30.9711 80.7642 30.1159 77.2419 28.8628C76.844 28.7231 76.573 29.3539 76.9541 29.5401C78.8295 30.4503 80.87 30.9838 82.9614 31.0938C83.8335 31.1404 84.7098 31.1065 85.5819 31.0176C84.2526 31.3521 82.8809 31.5045 81.4034 31.3732C78.4019 31.1023 75.7517 29.9847 73.2709 28.3251C70.3625 26.3819 68.377 24.0154 67.4372 20.6286C66.6201 17.6948 66.5778 14.6044 67.4795 11.7002C67.5176 11.6706 67.5557 11.6367 67.5769 11.5901C67.7335 11.2938 67.8859 11.0017 68.0383 10.7138C67.1451 13.0126 66.8826 15.5611 67.2847 17.9912C68.0425 22.6014 70.6419 25.6453 74.4648 28.1473C74.922 28.4479 75.3834 27.6774 74.8966 27.4191C71.5013 25.6199 68.8088 21.5261 68.2373 17.7837C67.6065 13.6518 69.1094 9.77396 71.569 6.48453C71.7807 6.20512 71.3362 5.89607 71.0949 6.12045C70.6927 6.49723 70.3202 6.90365 69.973 7.33123C70.5361 6.48453 71.1669 5.68864 71.9247 4.94777C71.7511 5.23989 72.0305 5.68017 72.3776 5.4558C73.2709 4.88428 74.1345 4.27466 75.0617 3.7497C75.7221 3.37715 76.4249 3.0808 77.1022 2.73789C77.2123 2.77176 77.3393 2.78023 77.4875 2.74213C82.4068 1.49325 87.3049 2.0309 91.1363 5.62514C91.2844 5.76484 91.4665 5.70134 91.5596 5.57434C91.5257 5.75214 91.6231 5.96381 91.8602 5.96381C92.2751 5.96381 92.2751 5.32455 91.8602 5.32455C91.7416 5.32455 91.6612 5.37536 91.6104 5.45156C91.6189 5.37959 91.6019 5.30339 91.5342 5.23142C90.2557 3.88094 88.6427 2.75482 86.8689 1.96739C92.0507 3.864 96.3604 8.5039 96.9827 13.8593C96.5975 12.1489 95.882 10.4937 94.8363 8.99923C94.5696 8.62245 93.9812 8.94842 94.2055 9.3633C95.5984 11.9119 96.2545 14.6975 96.3477 17.5848C96.4451 20.599 95.2724 23.173 93.6679 25.658C93.5028 25.912 93.8838 26.2211 94.0912 26.0094C94.1886 26.0602 94.3071 26.0602 94.4087 25.9671C96.7245 23.808 98.4178 20.5736 98.1892 17.335C98.1892 17.318 98.1808 17.3011 98.1765 17.2842L98.1808 17.2884Z" fill="black"/>
<path d="M75.6884 28.5242C75.5868 28.7613 75.7223 28.9984 75.9594 29.0788C76.133 29.1381 76.2896 29.1973 76.4716 29.2227C76.7849 29.2608 76.9034 28.8333 76.7129 28.6428C76.5902 28.5158 76.4251 28.4269 76.2769 28.3295C76.0694 28.1898 75.7773 28.3125 75.6842 28.5285L75.6884 28.5242Z" fill="black"/>
</svg>
