<svg width="12" height="12" viewBox="0 0 12 12" fill="none" xmlns="http://www.w3.org/2000/svg">
<path d="M8.64037 5.59999C8.54537 5.59999 8.45035 5.56498 8.37535 5.48998C8.23035 5.34498 8.23035 5.10498 8.37535 4.95998L9.97035 3.36498L8.37535 1.76997C8.23035 1.62497 8.23035 1.38498 8.37535 1.23998C8.52035 1.09498 8.76035 1.09498 8.90535 1.23998L10.7654 3.09999C10.8354 3.16999 10.8754 3.26498 10.8754 3.36498C10.8754 3.46498 10.8354 3.55999 10.7654 3.62999L8.90535 5.48998C8.83035 5.55998 8.73537 5.59999 8.64037 5.59999Z" fill="#292D32"/>
<path d="M10.5 3.73999H1.5C1.295 3.73999 1.125 3.56999 1.125 3.36499C1.125 3.15999 1.295 2.98999 1.5 2.98999H10.5C10.705 2.98999 10.875 3.15999 10.875 3.36499C10.875 3.56999 10.705 3.73999 10.5 3.73999Z" fill="#292D32"/>
<path d="M3.35999 10.875C3.26499 10.875 3.17 10.84 3.095 10.765L1.23499 8.90498C1.16499 8.83498 1.125 8.74 1.125 8.64C1.125 8.54 1.16499 8.44499 1.23499 8.37499L3.095 6.515C3.24 6.37 3.48 6.37 3.625 6.515C3.77 6.66 3.77 6.9 3.625 7.045L2.03 8.64L3.625 10.235C3.77 10.38 3.77 10.62 3.625 10.765C3.555 10.84 3.45999 10.875 3.35999 10.875Z" fill="#292D32"/>
<path d="M10.5 9.01001H1.5C1.295 9.01001 1.125 8.84001 1.125 8.63501C1.125 8.43001 1.295 8.26001 1.5 8.26001H10.5C10.705 8.26001 10.875 8.43001 10.875 8.63501C10.875 8.84001 10.705 9.01001 10.5 9.01001Z" fill="#292D32"/>
</svg>
