<svg width="1236" height="218" viewBox="0 0 1236 218" fill="none" xmlns="http://www.w3.org/2000/svg">
<mask id="mask0_5_556" style="mask-type:alpha" maskUnits="userSpaceOnUse" x="0" y="0" width="1236" height="218">
<rect y="0.166016" width="1236" height="217.015" rx="16" fill="white"/>
</mask>
<g mask="url(#mask0_5_556)">
<path d="M-21.4716 77.3032H18.4175C18.7414 77.3032 19.0604 77.2246 19.3471 77.074L51.9548 59.955C52.4991 59.6693 53.1445 59.6497 53.7052 59.902L91.4241 76.8757C92.0195 77.1436 92.7083 77.104 93.2691 76.7696L130.355 54.6554C130.464 54.5904 130.579 54.5359 130.698 54.4927L171.014 39.8954C171.326 39.7826 171.604 39.5941 171.825 39.3469L204.42 2.84042C205.463 1.67231 207.383 2.10169 207.829 3.60278L241.988 118.563C242.518 120.348 244.985 120.504 245.735 118.8L283.473 33.1739C283.999 31.9812 285.507 31.6019 286.534 32.4041L320.38 58.8303C320.917 59.2491 321.629 59.3664 322.272 59.1416L377.243 39.9013C377.576 39.7849 377.872 39.5827 378.101 39.3151L393.543 21.2997C394.205 20.5278 395.34 20.3751 396.182 20.9449L436.855 48.4668C437.009 48.5711 437.148 48.6964 437.267 48.8391L460.504 76.5873C460.884 77.0411 461.446 77.3032 462.038 77.3032H590.368C590.827 77.3032 591.272 77.1453 591.628 76.8558L625.395 49.4371C626.005 48.9421 626.848 48.8497 627.55 49.2009L664.571 67.7116C665.385 68.1187 666.372 67.9246 666.971 67.2394L706.263 22.315C707.228 21.212 709.012 21.4867 709.6 22.8289L745.956 105.774C746.275 106.502 746.994 106.971 747.788 106.971H779.323C779.988 106.971 780.61 107.302 780.982 107.854L813.204 155.672H817.229L855.996 61.159C856.383 60.2159 857.417 59.7147 858.397 59.9953L887.038 68.1969C887.501 68.3297 887.997 68.2905 888.434 68.0866L929.263 49.0327C929.817 48.7745 930.458 48.7832 931.004 49.0562L968.785 67.9473C969.358 68.2335 970.032 68.2285 970.601 67.934L1006.87 49.1293C1007.47 48.8146 1008.2 48.8317 1008.79 49.1748L1056.82 77.0333C1057.13 77.2101 1057.47 77.3032 1057.83 77.3032H1261.55C1262.65 77.3032 1263.55 78.1987 1263.55 79.3032V153.672C1263.55 154.777 1262.65 155.672 1261.55 155.672H817.229L817.125 155.925C816.519 157.404 814.509 157.609 813.616 156.284L813.204 155.672H-21.4716C-22.5762 155.672 -23.4716 154.777 -23.4716 153.672V79.3032C-23.4716 78.1987 -22.5762 77.3032 -21.4716 77.3032Z" fill="url(#paint0_linear_5_556)"/>
<path d="M-23.4716 77.3032H18.4175C18.7413 77.3032 19.0604 77.2246 19.3471 77.074L51.9547 59.955C52.499 59.6693 53.1445 59.6497 53.7051 59.902L91.4241 76.8757C92.0195 77.1436 92.7083 77.104 93.2691 76.7696L130.355 54.6554C130.464 54.5904 130.579 54.5359 130.698 54.4927L171.014 39.8954C171.325 39.7826 171.604 39.5941 171.825 39.3469L204.42 2.84041C205.463 1.67231 207.383 2.10169 207.829 3.60278L241.988 118.563C242.518 120.348 244.985 120.504 245.735 118.8L283.473 33.1739C283.999 31.9812 285.507 31.6019 286.534 32.4041L320.38 58.8303C320.917 59.2491 321.629 59.3664 322.272 59.1416L377.243 39.9013C377.576 39.7849 377.872 39.5827 378.101 39.3151L393.543 21.2997C394.205 20.5278 395.34 20.3751 396.182 20.9449L436.855 48.4668C437.009 48.5711 437.148 48.6964 437.267 48.8391L460.504 76.5873C460.884 77.0411 461.446 77.3032 462.038 77.3032H590.368C590.827 77.3032 591.272 77.1453 591.628 76.8558L625.395 49.4371C626.005 48.9421 626.848 48.8497 627.55 49.2009L664.571 67.7116C665.385 68.1187 666.372 67.9246 666.971 67.2394L706.263 22.315C707.228 21.212 709.012 21.4867 709.6 22.8289L745.956 105.774C746.275 106.502 746.994 106.971 747.788 106.971H779.323C779.988 106.971 780.61 107.302 780.981 107.854L813.616 156.284C814.509 157.609 816.519 157.404 817.125 155.925L855.996 61.159C856.383 60.2159 857.417 59.7147 858.397 59.9953L887.038 68.1969C887.501 68.3297 887.997 68.2905 888.434 68.0866L929.263 49.0327C929.817 48.7745 930.457 48.7832 931.004 49.0562L968.785 67.9473C969.358 68.2335 970.032 68.2285 970.6 67.934L1006.87 49.1293C1007.47 48.8146 1008.2 48.8317 1008.79 49.1748L1056.82 77.0333C1057.13 77.2101 1057.47 77.3032 1057.83 77.3032H1263.55" stroke="#00DEA3" stroke-width="3"/>
<path d="M73.872 111.337H-14.4373C-16.0941 111.337 -17.4373 112.68 -17.4373 114.337V231.692C-17.4373 233.349 -16.0941 234.692 -14.4373 234.692H1243.32C1244.97 234.692 1246.32 233.349 1246.32 231.692V114.337C1246.32 112.68 1244.97 111.337 1243.32 111.337H1212.97C1212.83 111.337 1212.68 111.326 1212.53 111.304L1142.48 100.797C1142.34 100.775 1142.19 100.764 1142.04 100.764H1057.06C1056.8 100.764 1056.54 100.797 1056.29 100.862L1016.76 111.239C1016.52 111.304 1016.26 111.337 1016 111.337H963.118C962.831 111.337 962.545 111.378 962.27 111.459L931.059 120.658C930.885 120.71 930.716 120.777 930.554 120.859L900.938 135.831C900.706 135.949 900.49 136.096 900.296 136.269L882.742 151.908C882.339 152.266 881.848 152.51 881.319 152.612L852.398 158.236C852.08 158.298 851.774 158.411 851.492 158.571L818.244 177.411C817.278 177.959 816.088 177.928 815.152 177.331L741.151 130.134L704.615 111.534C704.359 111.403 704.084 111.31 703.801 111.258L647.166 100.764L621.033 93.9034C620.56 93.7794 620.065 93.7726 619.589 93.8836L546.043 111.045C545.243 111.231 544.402 111.082 543.715 110.631L519.491 94.7338C518.539 94.1094 517.316 94.0771 516.333 94.6506L488.429 110.928C487.97 111.196 487.449 111.337 486.917 111.337H431.727C431.041 111.337 430.375 111.102 429.842 110.671L409.06 93.8855C408.92 93.7718 408.769 93.6711 408.61 93.5845L381.144 78.6306C379.741 77.8667 377.985 78.3364 377.151 79.699L368.984 93.0387C368.712 93.4817 368.331 93.8467 367.876 94.098L337.359 110.963C336.915 111.208 336.416 111.337 335.908 111.337H303.927C303.396 111.337 302.875 111.478 302.416 111.745L234.952 151.1C233.63 151.871 231.939 151.523 231.028 150.293L185.479 88.7216C184.602 87.537 182.995 87.1642 181.687 87.842L101.712 129.269C100.691 129.798 99.4583 129.697 98.5372 129.009L75.6669 111.933C75.1485 111.546 74.5189 111.337 73.872 111.337Z" fill="url(#paint1_linear_5_556)" stroke="#5A55D2" stroke-width="3" stroke-linejoin="round"/>
</g>
<defs>
<linearGradient id="paint0_linear_5_556" x1="642.803" y1="-124.324" x2="642.803" y2="132.191" gradientUnits="userSpaceOnUse">
<stop offset="0.171875" stop-color="#18BFEF"/>
<stop offset="0.880208" stop-color="#D3FF76" stop-opacity="0"/>
</linearGradient>
<linearGradient id="paint1_linear_5_556" x1="634.358" y1="29.4999" x2="635.367" y2="192.507" gradientUnits="userSpaceOnUse">
<stop offset="0.113029" stop-color="#5A55D2" stop-opacity="0.24"/>
<stop offset="1" stop-color="#5A55D2" stop-opacity="0"/>
</linearGradient>
</defs>
</svg>
