<svg width="32" height="32" viewBox="0 0 32 32" fill="none" xmlns="http://www.w3.org/2000/svg">
<circle cx="16" cy="16" r="16" fill="#ECF0F7"/>
<path d="M23.6985 8L16.8359 13.0778L18.1121 10.0853L23.6985 8Z" fill="#E17726" stroke="#E17726" stroke-width="0.25" stroke-linecap="round" stroke-linejoin="round"/>
<path d="M7.86914 8L14.6706 13.1252L13.4556 10.0853L7.86914 8Z" fill="#E27625" stroke="#E27625" stroke-width="0.25" stroke-linecap="round" stroke-linejoin="round"/>
<path d="M21.2273 19.7729L19.4014 22.5624L23.3112 23.6389L24.4312 19.8339L21.2273 19.7729Z" fill="#E27625" stroke="#E27625" stroke-width="0.25" stroke-linecap="round" stroke-linejoin="round"/>
<path d="M7.14258 19.8339L8.25579 23.6389L12.1588 22.5624L10.3397 19.7729L7.14258 19.8339Z" fill="#E27625" stroke="#E27625" stroke-width="0.25" stroke-linecap="round" stroke-linejoin="round"/>
<path d="M11.9483 15.0627L10.8623 16.7012L14.7314 16.8772L14.6024 12.7134L11.9483 15.0627Z" fill="#E27625" stroke="#E27625" stroke-width="0.25" stroke-linecap="round" stroke-linejoin="round"/>
<path d="M19.6189 15.061L16.9242 12.6643L16.8359 16.8755L20.705 16.6995L19.6189 15.061Z" fill="#E27625" stroke="#E27625" stroke-width="0.25" stroke-linecap="round" stroke-linejoin="round"/>
<path d="M12.1592 22.562L14.501 21.4313L12.485 19.8606L12.1592 22.562Z" fill="#E27625" stroke="#E27625" stroke-width="0.25" stroke-linecap="round" stroke-linejoin="round"/>
<path d="M17.0664 21.4313L19.4014 22.562L19.0824 19.8606L17.0664 21.4313Z" fill="#E27625" stroke="#E27625" stroke-width="0.25" stroke-linecap="round" stroke-linejoin="round"/>
<path d="M19.4014 22.5641L17.0664 21.4335L17.2564 22.95L17.2361 23.5932L19.4014 22.5641Z" fill="#D5BFB2" stroke="#D5BFB2" stroke-width="0.25" stroke-linecap="round" stroke-linejoin="round"/>
<path d="M12.1592 22.5641L14.3313 23.5932L14.3177 22.95L14.501 21.4335L12.1592 22.5641Z" fill="#D5BFB2" stroke="#D5BFB2" stroke-width="0.25" stroke-linecap="round" stroke-linejoin="round"/>
<path d="M14.372 18.8601L12.4307 18.2914L13.8018 17.6617L14.372 18.8601Z" fill="#233447" stroke="#233447" stroke-width="0.25" stroke-linecap="round" stroke-linejoin="round"/>
<path d="M17.1953 18.8601L17.7655 17.6617L19.1435 18.2914L17.1953 18.8601Z" fill="#233447" stroke="#233447" stroke-width="0.25" stroke-linecap="round" stroke-linejoin="round"/>
<path d="M12.159 22.5624L12.4984 19.7729L10.3398 19.8339L12.159 22.5624Z" fill="#CC6228" stroke="#CC6228" stroke-width="0.25" stroke-linecap="round" stroke-linejoin="round"/>
<path d="M19.0684 19.7729L19.401 22.5624L21.2269 19.8339L19.0684 19.7729Z" fill="#CC6228" stroke="#CC6228" stroke-width="0.25" stroke-linecap="round" stroke-linejoin="round"/>
<path d="M20.705 16.6991L16.8359 16.8751L17.1957 18.8589L17.7659 17.6605L19.1438 18.2902L20.705 16.6991Z" fill="#CC6228" stroke="#CC6228" stroke-width="0.25" stroke-linecap="round" stroke-linejoin="round"/>
<path d="M12.4303 18.2902L13.8015 17.6605L14.3717 18.8589L14.7314 16.8751L10.8623 16.6991L12.4303 18.2902Z" fill="#CC6228" stroke="#CC6228" stroke-width="0.25" stroke-linecap="round" stroke-linejoin="round"/>
<path d="M10.8623 16.6991L12.4846 19.8609L12.4303 18.2902L10.8623 16.6991Z" fill="#E27525" stroke="#E27525" stroke-width="0.25" stroke-linecap="round" stroke-linejoin="round"/>
<path d="M19.1431 18.2902L19.082 19.8609L20.7043 16.6991L19.1431 18.2902Z" fill="#E27525" stroke="#E27525" stroke-width="0.25" stroke-linecap="round" stroke-linejoin="round"/>
<path d="M14.7319 16.8762L14.3721 18.86L14.8269 21.2025L14.9287 18.1152L14.7319 16.8762Z" fill="#E27525" stroke="#E27525" stroke-width="0.25" stroke-linecap="round" stroke-linejoin="round"/>
<path d="M16.8356 16.8762L16.6455 18.1085L16.7406 21.2025L17.1953 18.86L16.8356 16.8762Z" fill="#E27525" stroke="#E27525" stroke-width="0.25" stroke-linecap="round" stroke-linejoin="round"/>
<path d="M17.195 18.86L16.7402 21.2025L17.0661 21.4327L19.0821 19.862L19.1432 18.2913L17.195 18.86Z" fill="#F5841F" stroke="#F5841F" stroke-width="0.25" stroke-linecap="round" stroke-linejoin="round"/>
<path d="M12.4307 18.2913L12.485 19.862L14.501 21.4327L14.8268 21.2025L14.372 18.86L12.4307 18.2913Z" fill="#F5841F" stroke="#F5841F" stroke-width="0.25" stroke-linecap="round" stroke-linejoin="round"/>
<path d="M17.2365 23.5936L17.2569 22.9504L17.0804 22.8014H14.4874L14.3177 22.9504L14.3313 23.5936L12.1592 22.5645L12.9194 23.1873L14.4603 24.2503H17.1007L18.6484 23.1873L19.4018 22.5645L17.2365 23.5936Z" fill="#C0AC9D" stroke="#C0AC9D" stroke-width="0.25" stroke-linecap="round" stroke-linejoin="round"/>
<path d="M17.0665 21.4322L16.7406 21.202H14.8265L14.5007 21.4322L14.3174 22.9488L14.4871 22.7998H17.0801L17.2566 22.9488L17.0665 21.4322Z" fill="#161616" stroke="#161616" stroke-width="0.25" stroke-linecap="round" stroke-linejoin="round"/>
<path d="M23.99 13.4096L24.567 10.6066L23.6981 8L17.0664 12.9086L19.6186 15.0615L23.223 16.111L24.0172 15.1834L23.671 14.9329L24.2208 14.4319L23.8 14.1069L24.3498 13.6872L23.99 13.4096Z" fill="#763E1A" stroke="#763E1A" stroke-width="0.25" stroke-linecap="round" stroke-linejoin="round"/>
<path d="M7 10.6066L7.58376 13.4096L7.21043 13.6872L7.76703 14.1069L7.34618 14.4319L7.896 14.9329L7.54982 15.1834L8.344 16.111L11.9484 15.0615L14.5006 12.9086L7.86885 8L7 10.6066Z" fill="#763E1A" stroke="#763E1A" stroke-width="0.25" stroke-linecap="round" stroke-linejoin="round"/>
<path d="M23.2226 16.1107L19.6183 15.0613L20.7043 16.6997L19.082 19.8615L21.227 19.8344H24.4309L23.2226 16.1107Z" fill="#F5841F" stroke="#F5841F" stroke-width="0.25" stroke-linecap="round" stroke-linejoin="round"/>
<path d="M11.9484 15.0613L8.34403 16.1107L7.14258 19.8344H10.3397L12.4846 19.8615L10.8623 16.6997L11.9484 15.0613Z" fill="#F5841F" stroke="#F5841F" stroke-width="0.25" stroke-linecap="round" stroke-linejoin="round"/>
<path d="M16.8355 16.8757L17.0662 12.9082L18.1116 10.085H13.4551L14.5004 12.9082L14.7312 16.8757L14.8194 18.1215L14.8262 21.202H16.7404L16.7472 18.1215L16.8355 16.8757Z" fill="#F5841F" stroke="#F5841F" stroke-width="0.25" stroke-linecap="round" stroke-linejoin="round"/>
</svg>
