<svg width="18" height="25" viewBox="0 0 18 25" fill="none" xmlns="http://www.w3.org/2000/svg">
<path fill-rule="evenodd" clip-rule="evenodd" d="M16.2531 7.99706C16.0063 5.4369 13.7962 4.57859 11.0058 4.33412L11.0057 0.782739L8.84347 0.78311L8.84361 4.24089C8.27591 4.24082 7.69501 4.25205 7.11789 4.26356L7.11821 0.782888L4.95767 0.782825L4.95688 4.33319C4.48886 4.34275 4.02925 4.35144 3.58108 4.35174L3.5808 4.34073L0.599292 4.33971L0.59986 6.64847C0.59986 6.64847 2.19619 6.61804 2.16966 6.64744C3.04526 6.6477 3.33081 7.15588 3.41313 7.59468L3.41332 11.6404C3.47374 11.6408 3.55256 11.6433 3.64181 11.6555L3.41404 11.6557L3.41291 17.3235C3.37449 17.5991 3.21251 18.0385 2.60076 18.0395C2.62842 18.064 1.02937 18.0391 1.02937 18.0391L0.600005 20.6213L3.41373 20.6211C3.73145 20.6214 4.04607 20.6248 4.35725 20.6282L4.35729 20.6282C4.55882 20.6304 4.7589 20.6326 4.95743 20.6339L4.95849 24.2263L7.11787 24.2267L7.11838 20.6727C7.7107 20.6851 8.28448 20.6898 8.84465 20.6893L8.84371 24.2267L11.0054 24.2265L11.0061 20.6411C14.6403 20.4325 17.1845 19.5168 17.4994 16.1049C17.7544 13.3568 16.4623 12.1305 14.3991 11.6345C15.6522 10.9951 16.4357 9.87067 16.2525 7.99721L16.2531 7.99706ZM13.2279 15.6773C13.2285 18.141 9.35753 18.0867 7.58799 18.0619C7.42953 18.0596 7.28792 18.0577 7.16745 18.0577L7.16799 13.2988C7.31527 13.2988 7.49415 13.2946 7.69678 13.2898C9.51037 13.247 13.2271 13.1593 13.2285 15.6772L13.2279 15.6773ZM7.52373 11.1245C9.0011 11.1487 12.2214 11.2014 12.222 8.96305C12.2223 6.67322 9.12419 6.75552 7.61111 6.79572C7.44101 6.80024 7.29095 6.80422 7.16756 6.80425L7.16744 11.1204C7.26928 11.1204 7.38929 11.1223 7.52373 11.1245Z" fill="#F4FFFC"/>
</svg>
