<svg width="25" height="24" viewBox="0 0 25 24" fill="none" xmlns="http://www.w3.org/2000/svg">
<path d="M12.5 24C19.1274 24 24.5 18.6274 24.5 12C24.5 5.37258 19.1274 0 12.5 0C5.87258 0 0.5 5.37258 0.5 12C0.5 18.6274 5.87258 24 12.5 24Z" fill="#26A17B"/>
<path d="M14.0383 13.1063V13.1047C13.9503 13.1111 13.4967 13.1383 12.4847 13.1383C11.6767 13.1383 11.1079 13.1143 10.9079 13.1047V13.1071C7.79752 12.9703 5.47592 12.4287 5.47592 11.7807C5.47592 11.1335 7.79752 10.5919 10.9079 10.4527V12.5679C11.1111 12.5823 11.6935 12.6167 12.4983 12.6167C13.4639 12.6167 13.9479 12.5767 14.0383 12.5687V10.4543C17.1423 10.5927 19.4583 11.1343 19.4583 11.7807C19.4583 12.4287 17.1423 12.9687 14.0383 13.1063V13.1063ZM14.0383 10.2343V8.34148H18.3695V5.45508H6.57672V8.34148H10.9079V10.2335C7.38792 10.3951 4.74072 11.0927 4.74072 11.9279C4.74072 12.7631 7.38792 13.4599 10.9079 13.6223V19.6879H14.0383V13.6207C17.5527 13.4591 20.1935 12.7623 20.1935 11.9279C20.1935 11.0935 17.5527 10.3967 14.0383 10.2343" fill="white"/>
</svg>
